<?xml version="1.0" standalone="no"?>
<!DOCTYPE svg PUBLIC "-//W3C//DTD SVG 20010904//EN"
 "http://www.w3.org/TR/2001/REC-SVG-20010904/DTD/svg10.dtd">
<svg version="1.0" xmlns="http://www.w3.org/2000/svg"
 width="400.000000pt" height="400.000000pt" viewBox="0 0 400.000000 400.000000"
 preserveAspectRatio="xMidYMid meet">
<metadata>
Created by potrace 1.14, written by Peter Selinger 2001-2017
</metadata>
<g transform="translate(0.000000,400.000000) scale(0.100000,-0.100000)"
fill="#000000" stroke="none">
<path d="M1310 3744 c0 -7 19 -40 230 -404 198 -341 210 -363 248 -430 14 -25
33 -57 43 -72 11 -14 19 -29 19 -32 0 -3 20 -39 45 -79 25 -41 45 -76 45 -78
0 -2 -279 -4 -621 -4 l-621 0 -64 -108 c-35 -60 -64 -111 -64 -114 0 -3 -8
-17 -19 -31 -10 -15 -29 -47 -43 -72 -14 -25 -112 -193 -218 -375 -106 -181
-200 -343 -210 -360 -9 -16 -31 -54 -49 -83 l-32 -54 39 -66 c109 -188 362
-621 381 -652 11 -19 31 -53 43 -75 12 -22 28 -49 35 -60 7 -11 18 -31 25 -45
7 -14 15 -27 18 -30 3 -3 11 -16 19 -29 7 -14 24 -43 36 -65 13 -23 41 -71 63
-109 l39 -67 46 77 c25 43 79 136 121 207 42 71 76 133 76 137 0 4 4 9 8 11 5
2 15 15 23 30 14 29 186 322 226 387 13 20 29 47 35 61 7 14 31 55 53 91 l41
66 45 -71 c47 -72 144 -227 453 -716 l173 -275 696 -3 c661 -2 696 -1 690 15
-4 10 -11 21 -16 25 -6 3 80 163 198 370 114 199 219 383 233 408 14 25 42 74
64 109 21 34 38 64 38 66 0 2 23 42 51 90 l51 86 -35 57 c-19 31 -70 118 -112
192 -43 74 -108 187 -145 250 -55 93 -725 1244 -804 1381 -12 20 -75 129 -141
243 l-120 206 -667 0 c-368 0 -668 -3 -668 -6z m795 -1379 c30 -55 426 -738
435 -750 4 -5 21 -35 37 -65 71 -129 87 -156 101 -172 8 -10 13 -19 11 -19
-11 -4 -1339 -4 -1339 0 0 3 60 106 100 171 5 8 30 51 56 95 61 105 187 318
315 535 57 96 112 191 122 210 11 19 28 47 38 62 11 14 19 30 19 35 0 5 5 14
12 21 12 12 38 -21 93 -123z"/>
</g>
</svg>
