<svg width="117" height="117" viewBox="0 0 117 117" fill="none" xmlns="http://www.w3.org/2000/svg">
<path d="M103.348 104.804H6.37476V105.997H103.348V104.804Z" fill="black"/>
<path d="M18.1932 76.6836C16.6108 74.499 16.006 71.801 16.2036 69.1217C12.6289 69.18 9.06217 67.4849 7.24763 64.3492C5.32035 61.0186 5.41983 56.8032 7.58189 53.6052C-1.64466 49.305 1.7828 34.9359 11.4272 33.839C8.79026 25.3751 18.1004 16.7919 26.2817 20.4435C28.7144 12.4479 38.177 8.74848 45.6328 12.4346C47.1768 13.1973 48.8414 14.3473 49.7646 15.7984C51.0565 15.0463 52.4135 14.3486 53.9402 14.2107C60.104 13.6549 64.7306 18.9327 63.2887 24.952C68.2655 25.2332 72.0988 29.613 71.9105 34.5672C71.8362 36.5197 71.1504 38.7587 69.9765 40.3265C69.6051 40.8226 68.9287 41.3014 68.5904 41.7259C68.4976 41.8426 68.418 41.8731 68.4618 42.0614C70.2644 42.8772 71.5298 44.6864 72.3734 46.4399C73.9054 44.7355 75.7027 42.1397 77.7891 41.1117C78.2693 40.8756 79.804 40.5798 79.9326 40.3371L83.0908 24.5275C83.2964 23.7768 83.3521 23.5619 84.1732 23.4876C85.3311 23.3815 86.5209 23.6136 87.6232 23.6322C89.9471 23.6693 92.2736 23.5327 94.5856 23.7529L96.6229 16.1074C97.0089 15.679 99.3129 15.7281 99.9642 15.801C100.809 15.8952 101.585 16.378 101.492 17.3198L100.03 23.8922L109.483 24.0567C110.513 24.4572 112.728 25.4069 112.891 26.6233L106.422 58.8459L114.829 94.4668C114.668 95.0292 114.222 95.4524 113.629 95.5227C112.99 95.5983 111.064 95.6089 110.45 95.5121C110.001 95.4404 109.651 95.0558 109.419 94.6857L103.333 68.607L100.294 68.4611C100.188 69.9361 100.24 71.4363 100.168 72.9112C99.7069 82.2704 99.3447 91.6389 98.8089 100.998C98.6921 101.403 98.3857 101.683 97.9666 101.748C97.3458 101.844 95.4331 101.834 94.7885 101.758C94.0722 101.675 93.7168 101.135 93.5364 100.487L94.9901 68.1958L84.1931 67.6573L74.7211 96.5414C74.5341 96.8876 74.2237 97.1741 73.8245 97.2364C73.205 97.3346 71.0111 97.3332 70.3771 97.251C69.6224 97.1528 69.3677 96.3053 69.5826 95.646L78.9259 67.4504C78.9842 67.197 78.9219 67.2886 78.7428 67.2673C76.9668 67.0551 74.997 67.2023 73.1984 66.9742C72.8734 66.9026 72.5272 66.571 72.4622 66.2407C72.4105 65.9781 72.9384 62.9525 73.0724 62.6607C73.477 61.776 74.9652 62.1116 75.7518 62.2256L76.5516 58.5143C76.4747 58.4347 75.0527 59.3924 74.8312 59.5118C71.2486 61.4231 66.8634 62.4087 63.1588 60.2387C62.5937 62.0797 61.3814 63.6741 59.8414 64.8161C62.4412 66.1253 65.0303 67.6944 66.7931 70.0661C70.9223 75.6171 69.1382 84.455 65.5529 89.8721C67.8437 91.2861 70.0216 94.2626 67.9856 96.8372C64.9468 100.681 55.5531 97.9792 54.1285 93.4747C52.9188 89.6506 56.2229 85.9446 54.732 82.6578C54.2293 81.5489 53.2518 80.7318 52.1468 80.2702C53.07 84.902 51.7754 89.8987 48.6995 93.468C53.7545 96.8557 51.5128 102.222 45.5744 102.029C41.4573 101.895 35.7139 99.1279 35.3027 94.5265C35.044 91.6376 36.7922 88.2513 35.9274 85.678C35.3942 84.089 33.9073 83.5664 32.4509 83.053L31.2571 98.0429C31.0953 98.4315 30.7451 98.7644 30.3193 98.8321C29.8418 98.9077 27.6148 98.9077 27.2023 98.7804C26.8123 98.661 26.2565 98.0124 26.2764 97.5733L27.4742 82.1272H22.6991L19.1867 99.9038C18.9002 100.818 18.1773 100.907 17.3337 100.969C16.185 101.054 14.0973 101.21 14.1264 99.5921L17.66 82.1285H15.4714C15.3136 82.1285 14.7896 81.3817 14.7498 81.1257C14.653 80.5169 14.6636 78.5804 14.7392 77.9463C14.7949 77.4808 15.2605 76.6889 15.7367 76.6889H18.1906L18.1932 76.6836ZM50.5233 17.6222C49.7619 18.3027 49.1889 16.9285 48.7685 16.4616C42.9256 9.99398 31.1576 11.4146 27.945 19.649C27.7448 20.1623 27.4503 21.7898 27.0802 21.9689C26.5271 22.2381 25.8719 21.628 25.3532 21.4396C18.2542 18.8438 10.7454 25.9866 12.5825 33.2819C12.7045 33.7687 13.1621 34.1812 12.8743 34.6799C12.5865 35.1787 11.3675 35.0924 10.7613 35.2264C3.13707 36.9136 0.506783 48.2266 7.84319 52.3465C8.25173 52.5759 9.15369 52.6728 9.28766 53.1662C9.40704 53.6066 8.62313 54.3096 8.37509 54.7247C4.78713 60.7347 9.44949 68.2887 16.4012 67.7913C17.0896 67.7422 19.2597 67.0498 19.6191 67.2236C19.9043 67.3615 20.2784 68.5447 20.5264 68.9771C22.9391 73.1646 28.5764 73.5254 32.8143 72.3992C34.9061 71.8435 37.1411 70.7054 38.3561 68.8564L36.8984 68.4571C36.9939 71.3222 33.2056 71.3938 31.1643 71.0742C23.8345 69.9268 16.0033 61.2627 19.8101 53.6928C25.5031 42.3745 50.8125 51.4976 48.9528 63.7351C48.2591 68.3006 43.5941 70.2597 39.4185 69.1217C39.2236 70.1961 38.3136 70.9959 37.4714 71.6193C32.2838 75.4593 21.6087 75.633 18.9891 68.5911C18.0831 68.9492 17.5207 68.5513 17.3987 69.7199C17.2634 71.0171 17.6719 72.9179 18.1707 74.1209C20.6763 80.1654 28.9385 80.0513 34.1102 82.3222C40.7264 85.227 34.9857 91.5394 37.0933 96.0519C38.5988 99.2751 43.9244 101.253 47.2762 100.657C50.3496 100.112 51.2993 97.3863 48.9542 95.2003C48.4103 94.6937 47.0547 94.2758 47.1144 93.6033C47.1608 93.0821 47.7988 92.7266 48.0946 92.3233C52.1402 86.7975 52.8658 77.6426 46.052 73.9618C45.5148 73.6713 44.39 73.3689 44.053 73.0439C43.5225 72.5292 43.8236 71.8382 44.5916 71.9629C45.3596 72.0875 46.7961 73.0638 47.1821 73.1022C47.5389 73.1381 48.9595 72.4271 49.3242 72.2003C50.7607 71.305 52.3936 69.2119 52.7769 67.5618C52.9772 66.7036 52.8379 65.8375 53.1098 65.0429C54.4734 64.7617 55.5717 65.1597 57.0121 64.7657C61.0962 63.6462 62.4624 59.6285 62.3695 55.7872C62.3589 55.3521 61.969 54.4634 62.4955 54.1995C63.5023 53.6954 63.6548 55.1625 63.696 55.7859C63.7676 56.8629 63.623 57.9466 63.5845 59.0157C68.0572 61.6354 73.7754 59.3367 77.3527 56.1918C78.7389 54.9728 80.3345 53.2962 80.7908 51.4909C80.2152 51.4074 79.9989 50.9763 79.6753 50.5691C77.7255 51.3477 75.7929 52.7656 73.8603 53.4952C73.1427 53.7657 71.8335 54.2008 71.2472 53.5402C70.5217 52.7232 71.4528 51.7376 72.0404 51.1447C73.8722 49.2944 76.8686 47.2636 79.0864 45.855C79.853 45.3682 83.8774 43.3335 83.8177 42.5257C82.929 41.4619 80.9394 41.5627 79.6886 41.8134C75.5316 42.6464 73.8245 48.1762 69.9208 49.8197C69.1157 50.1592 66.1684 50.7561 65.7439 49.8886C65.4283 48.4654 66.7268 49.1034 67.463 49.0968C68.2549 49.0901 69.4208 48.6882 70.0999 48.273C71.6757 47.3087 71.3215 46.9864 70.4302 45.603C69.8147 44.648 68.9008 43.6465 67.8914 43.1013C67.5001 42.8904 66.6724 42.7154 66.5305 42.6053C65.6524 41.9222 67.39 41.1595 67.8039 40.804C72.5379 36.7438 70.9913 28.0226 64.6191 26.476C63.9864 26.3222 62.1746 26.3315 61.957 26.0874C61.5419 25.6205 62.1746 24.3975 62.2356 23.6959C62.737 17.8888 57.361 14.013 51.9824 16.0955C51.7264 16.195 50.9292 16.5624 50.7674 16.7176C50.6626 16.8184 50.8257 17.349 50.5233 17.6196V17.6222ZM98.7067 23.7595L100.113 17.4007L99.9668 17.1275H97.513L95.9213 23.7595H98.7067ZM109.053 25.3526L84.3828 24.688L81.198 40.4724C82.1385 40.4167 83.1147 40.5321 83.9689 40.9512C84.3695 41.1475 84.6162 41.6264 85.0778 41.5163L92.649 37.1378C94.0629 34.8855 95.9385 33.1506 98.5728 32.4502C101.188 31.7552 101.853 32.1955 100.796 34.8059C100.011 36.7438 98.3128 38.748 96.3152 39.4776C95.721 39.6951 94.8522 39.7322 94.4091 39.9591C93.6093 40.3703 91.4937 42.6305 90.5426 43.3879C88.8714 44.7196 87.0528 45.8563 85.233 46.9745C85.6243 49.1697 84.9133 50.7614 82.86 51.6236C82.6452 51.7138 82.2618 51.7018 82.153 51.7774C82.0774 51.8305 81.5111 53.1635 81.3506 53.4288C80.4738 54.8799 79.2628 55.9954 78.0876 57.1959L77.0822 62.2256L101.356 63.5507L109.05 25.3526H109.053ZM104.145 63.95L111.568 27.122C111.572 26.4959 110.67 26.2917 110.313 25.8845L110.119 26.2187L102.687 63.6847C103.255 63.4618 103.614 63.9049 104.145 63.95ZM99.7679 33.5763C98.7598 33.5737 98.4865 34.5818 97.9666 35.2888C97.8286 35.4771 96.867 36.208 97.4533 36.3592C98.2703 36.5701 99.5212 34.2289 99.7679 33.5763ZM92.8692 38.4828L88.0954 41.1382L89.2229 42.8586L93.2658 39.3463C93.0111 39.1181 92.8612 38.8316 92.8692 38.4841V38.4828ZM87.021 41.9421C86.9215 41.8718 85.0221 42.9952 84.8815 43.1226C84.6547 43.3282 84.5525 43.6823 84.3178 43.9224C82.6146 45.6627 79.2959 47.1005 77.179 48.5874C75.8061 49.5517 74.0447 50.9219 72.8416 52.0759C72.6718 52.239 72.4105 52.4048 72.4463 52.6741C72.6917 52.5308 72.9849 52.5653 73.2409 52.4751C73.92 52.2377 79.4591 49.3846 79.666 49.0848C79.8398 48.8328 79.8928 48.4402 80.1382 48.098C81.1662 46.6694 82.2671 46.7782 83.6824 46.3365C84.4411 46.0991 86.9865 44.5113 87.6882 43.9768C87.8248 43.8733 88.1166 43.6611 88.0835 43.4741L87.0197 41.9394L87.021 41.9421ZM83.1532 47.6669C82.1849 47.8247 80.4672 48.8885 80.824 50.0624C81.2511 51.4657 84.7515 49.825 84.0976 47.8526C83.9411 47.517 83.4609 47.6178 83.1532 47.6682V47.6669ZM36.0999 66.7341C38.441 67.5671 40.993 68.5566 43.5066 67.9743C45.5811 67.4942 46.995 66.112 47.5442 64.0534C50.3801 53.4288 26.0589 43.7287 20.862 54.482C17.3218 61.8078 26.4343 70.5529 33.65 69.9228C34.7642 69.826 35.7629 69.4188 35.7086 68.1295C35.6688 67.1798 34.7681 67.53 33.9723 67.3363C32.4482 66.9662 29.8034 65.8852 30.6284 63.8505C30.8724 63.2496 32.2983 62.345 32.9138 62.1567C35.186 61.459 37.5337 62.6952 36.9978 65.3122C36.8678 65.9462 36.2537 66.1704 36.0999 66.7341ZM113.563 94.1923L105.803 61.8264C105.657 61.8304 105.192 64.5336 105.206 64.6782C105.249 65.088 106.129 65.7327 106.074 66.7407C106.035 67.4424 105.482 68.6853 104.681 68.7317L110.512 94.1923H113.563ZM34.085 63.1913C33.1831 63.2549 31.9575 63.7258 31.7147 64.6729C31.7638 65.1796 33.138 65.864 33.6022 65.9807C36.1781 66.6293 36.7365 63.0042 34.0837 63.1899L34.085 63.1913ZM73.912 63.2708L73.7701 65.8242L102.681 67.4305L102.823 64.8771L73.912 63.2708ZM104.368 65.7181C104.313 65.6677 104.038 65.5231 104.015 65.5417L103.614 67.3973C104.083 67.3177 104.469 67.7502 104.709 67.2329C104.949 66.7155 104.743 66.0683 104.368 65.7181ZM56.3078 94.6764C58.2974 96.8159 63.2861 98.2286 65.9495 96.9167C68.613 95.6049 67.5558 92.9362 65.6683 91.4851C65.1603 91.0951 63.948 90.7303 63.944 90.1507C63.9413 89.6984 65.0131 88.3176 65.3036 87.783C68.5878 81.7518 69.5136 73.6925 63.8233 68.7914C62.9757 68.0605 59.4156 65.7101 58.4354 65.6796C58.0865 65.669 57.097 66.1147 56.5771 66.189C55.7772 66.303 55.0769 66.2062 54.2784 66.2128C53.9309 69.6217 51.5672 72.8847 48.3029 74.0321L50.2673 76.1106C50.8894 76.6491 51.2794 78.1877 51.6892 78.6679C51.9359 78.9571 53.8301 79.6866 54.5384 80.3286C59.4448 84.776 52.5037 90.5831 56.3078 94.6751V94.6764ZM70.852 96.0493H73.6375L82.9078 67.7143C82.9661 67.4623 82.9051 67.5525 82.7247 67.5313C81.9528 67.4411 81.011 67.4849 80.2165 67.3907L70.8506 96.0493H70.852ZM96.1945 68.2263L94.7898 100.494L97.7305 100.623L99.1352 68.355L96.1945 68.2263ZM19.4533 78.01H15.9383V80.9281H24.8253L21.9019 79.6733C21.2466 79.5062 19.9083 78.128 19.4533 78.01ZM21.3766 82.1219H19.0554L15.4078 99.6306H17.9279L21.3766 82.1219ZM27.6108 97.641H30.131L31.2001 82.5954C30.7093 82.4827 29.1707 81.9163 28.7966 82.1789L27.6121 97.6396L27.6108 97.641Z" fill="black"/>
<path d="M109.053 25.3526L101.358 63.5508L77.0847 62.2257L78.0901 57.1959C79.264 55.9942 80.4764 54.8787 81.3531 53.4289C81.5136 53.1636 82.0813 51.8306 82.1556 51.7775C82.2644 51.7019 82.6477 51.7139 82.8626 51.6237C84.9159 50.7615 85.6268 49.1698 85.2355 46.9746C87.0554 45.8564 88.8726 44.7197 90.5452 43.3879C91.4962 42.6306 93.6119 40.3703 94.4117 39.9591C94.8534 39.7323 95.7235 39.6939 96.3178 39.4777C98.3153 38.7481 100.012 36.7439 100.798 34.806C101.856 32.1956 101.191 31.7553 98.5753 32.4503C95.9411 33.1506 94.0655 34.8856 92.6515 37.1379L85.0804 41.5164C84.6188 41.6265 84.372 41.1476 83.9715 40.9513C83.1173 40.5322 82.141 40.4168 81.2006 40.4725L84.3853 24.6881L109.055 25.3526H109.053Z" fill="white"/>
<path d="M96.1881 68.2213L94.7849 100.489L97.7255 100.617L99.1287 68.3491L96.1881 68.2213Z" fill="white"/>
<path d="M113.563 94.1924H110.512L104.681 68.7319C105.482 68.6854 106.035 67.4426 106.074 66.7409C106.129 65.7328 105.249 65.0882 105.206 64.6783C105.192 64.5338 105.657 61.8305 105.803 61.8265L113.563 94.1924Z" fill="white"/>
<path d="M70.8521 96.0493L80.2179 67.3907C81.0124 67.4849 81.9542 67.4412 82.7261 67.5313C82.9065 67.5526 82.9662 67.4624 82.9092 67.7144L73.6389 96.0493H70.8534H70.8521Z" fill="white"/>
<path d="M73.9121 63.2706L73.7703 65.824L102.68 67.4302L102.822 64.8768L73.9121 63.2706Z" fill="white"/>
<path d="M104.145 63.95C103.614 63.9063 103.255 63.4632 102.687 63.6848L110.119 26.2188L110.313 25.8845C110.67 26.2917 111.572 26.496 111.568 27.1221L104.145 63.95Z" fill="white"/>
<path d="M98.7069 23.7596H95.9214L97.5131 17.1276H99.967L100.113 17.4008L98.7069 23.7596Z" fill="white"/>
<path d="M87.021 41.9422L88.0848 43.4768C88.118 43.6638 87.8262 43.8747 87.6895 43.9795C86.9879 44.5141 84.4425 46.1031 83.6838 46.3392C82.2685 46.7809 81.1675 46.6722 80.1396 48.1007C79.8929 48.4429 79.8411 48.8342 79.6674 49.0876C79.4604 49.3873 73.9213 52.2391 73.2422 52.4779C72.9862 52.5681 72.6931 52.5349 72.4477 52.6769C72.4119 52.4063 72.6718 52.2418 72.8429 52.0786C74.046 50.9233 75.8075 49.5545 77.1803 48.5902C79.2986 47.1032 82.616 45.6641 84.3191 43.9252C84.5539 43.6851 84.656 43.3309 84.8828 43.1253C85.0248 42.998 86.9229 41.8745 87.0223 41.9448L87.021 41.9422Z" fill="white"/>
<path d="M92.8692 38.4829C92.8613 38.8317 93.0112 39.1169 93.2658 39.3451L89.2229 42.8574L88.0955 41.1371L92.8692 38.4816V38.4829Z" fill="white"/>
<path d="M83.1533 47.6671C83.4597 47.6167 83.9399 47.5172 84.0977 47.8514C84.753 49.8238 81.2512 51.4646 80.8241 50.0613C80.4673 48.8887 82.185 47.8236 83.1533 47.6657V47.6671Z" fill="white"/>
<path d="M99.768 33.5764C99.5212 34.229 98.2704 36.5701 97.4534 36.3592C96.8671 36.208 97.8287 35.4758 97.9667 35.2888C98.4866 34.5818 98.7612 33.5751 99.768 33.5764Z" fill="white"/>
<path d="M104.368 65.7184C104.743 66.0685 104.938 66.7424 104.709 67.2331C104.467 67.7504 104.083 67.318 103.615 67.3976L104.015 65.542C104.038 65.5247 104.314 65.668 104.368 65.7184Z" fill="white"/>
<path d="M50.5234 17.6222C50.8258 17.3516 50.6626 16.821 50.7674 16.7202C50.9292 16.565 51.7264 16.1976 51.9824 16.0981C57.361 14.0157 62.737 17.8915 62.2356 23.6985C62.1746 24.4002 61.5419 25.6231 61.9571 26.09C62.1746 26.3341 63.9852 26.3248 64.6192 26.4787C70.99 28.0253 72.5366 36.7465 67.8039 40.8066C67.3901 41.1621 65.6525 41.9248 66.5306 42.6079C66.6712 42.718 67.5002 42.8931 67.8915 43.104C68.9022 43.6491 69.8148 44.6493 70.4302 45.6056C71.3216 46.9891 71.6757 47.3127 70.1 48.2757C69.4208 48.6909 68.2549 49.0928 67.463 49.0994C66.7269 49.106 65.4283 48.468 65.744 49.8913C66.1685 50.7574 69.1157 50.1605 69.9209 49.8223C73.8245 48.1775 75.5316 42.649 79.6886 41.816C80.9408 41.5653 82.9291 41.4645 83.8178 42.5283C83.8774 43.3361 79.8544 45.3708 79.0864 45.8576C76.8673 47.2663 73.871 49.297 72.0405 51.1474C71.4529 51.7416 70.5218 52.7271 71.2473 53.5429C71.8336 54.2034 73.1441 53.7684 73.8603 53.4978C75.7929 52.7683 77.7255 51.3503 79.6754 50.5717C79.999 50.9789 80.2152 51.4113 80.7909 51.4936C80.3333 53.2988 78.7389 54.9754 77.3528 56.1944C73.7755 59.338 68.0559 61.638 63.5846 59.0183C63.6217 57.9492 63.7676 56.8656 63.696 55.7885C63.6536 55.1651 63.501 53.6981 62.4956 54.2021C61.9677 54.4661 62.359 55.3548 62.3696 55.7898C62.4624 59.6311 61.0976 63.6489 57.0122 64.7684C55.5717 65.1636 54.4734 64.7644 53.1099 65.0456C52.838 65.8401 52.9759 66.7063 52.7769 67.5644C52.3923 69.2145 50.7608 71.3076 49.3243 72.2029C48.9595 72.4297 47.5389 73.1407 47.1821 73.1049C46.7961 73.0664 45.3384 72.0862 44.5916 71.9655C43.8449 71.8448 43.5225 72.5319 44.0531 73.0465C44.3887 73.3728 45.5148 73.6752 46.052 73.9644C52.8658 77.6465 52.1403 86.8001 48.0947 92.326C47.8002 92.7292 47.1609 93.086 47.1145 93.606C47.0548 94.2785 48.4104 94.695 48.9542 95.203C51.2993 97.3902 50.3496 100.115 47.2763 100.66C43.9244 101.255 38.5989 99.2777 37.0934 96.0545C34.9857 91.5421 40.7265 85.2297 34.1103 82.3248C28.9386 80.054 20.6777 80.1667 18.1707 74.1236C17.672 72.9205 17.2635 71.0198 17.3988 69.7225C17.5208 68.554 18.0832 68.9532 18.9891 68.5937C21.6101 75.6357 32.2838 75.4619 37.4714 71.622C38.3137 70.9985 39.2236 70.1987 39.4186 69.1243C43.5942 70.2624 48.2592 68.3046 48.9529 63.7377C50.8125 51.5002 25.5032 42.3771 19.8102 53.6954C16.002 61.2653 23.8345 69.9308 31.1643 71.0768C33.2057 71.3965 36.9939 71.3248 36.8984 68.4598L38.3561 68.859C37.1411 70.7081 34.9061 71.8448 32.8144 72.4019C28.5765 73.5293 22.9392 73.1672 20.5264 68.9797C20.2771 68.5473 19.903 67.3642 19.6192 67.2262C19.261 67.0524 17.091 67.7448 16.4013 67.7939C9.44954 68.2913 4.78719 60.7374 8.37514 54.7274C8.62318 54.3122 9.4071 53.6092 9.28772 53.1688C9.15375 52.6741 8.25179 52.5786 7.84325 52.3491C0.508166 48.2279 3.13845 36.9149 10.7614 35.2291C11.3675 35.0951 12.5945 35.168 12.8743 34.6826C13.1542 34.1971 12.7059 33.7713 12.5825 33.2845C10.7455 25.9879 18.2543 18.8465 25.3533 21.4423C25.8719 21.632 26.5258 22.2421 27.0803 21.9715C27.4503 21.7911 27.7448 20.1649 27.9451 19.6516C31.1577 11.4172 42.927 9.99663 48.7685 16.4642C49.189 16.9298 49.762 18.304 50.5234 17.6249V17.6222ZM53.1828 31.348C51.3046 31.5138 51.2343 35.0036 52.8738 35.5713C55.3449 36.4268 55.5279 31.141 53.1828 31.348ZM41.773 32.0085C39.461 32.3468 40.6097 37.598 42.8593 36.0223C44.073 35.172 43.7666 31.7167 41.773 32.0085ZM51.9227 39.1858C51.7821 39.2998 51.607 39.6686 51.355 39.8768C49.5524 41.3677 47.2007 41.3359 45.2615 40.1315C44.898 39.906 44.3794 39.0651 43.7878 39.4709C42.7638 40.1726 44.9803 41.5799 45.5599 41.8227C47.7061 42.7207 51.4572 42.3678 52.7902 40.2509C53.4441 39.2123 52.6363 38.6088 51.9227 39.1858Z" fill="white"/>
<path d="M56.3079 94.6765C52.5037 90.5845 59.4449 84.7774 54.5385 80.33C53.8302 79.688 51.9374 78.9585 51.6893 78.6693C51.2795 78.1878 50.8895 76.6492 50.2674 76.112L48.303 74.0335C51.5673 72.8861 53.931 69.6231 54.2785 66.2142C55.077 66.2076 55.7773 66.3044 56.5772 66.1904C57.0971 66.1161 58.0866 65.6691 58.4355 65.681C59.4157 65.7115 62.9745 68.0619 63.8234 68.7928C69.5137 73.6939 68.5879 81.7532 65.3037 87.7844C65.0118 88.319 63.9414 89.6998 63.9441 90.1521C63.9467 90.7317 65.1604 91.0965 65.6684 91.4865C67.5572 92.9376 68.5759 95.6249 65.9496 96.9181C63.3233 98.2114 58.2975 96.8173 56.3079 94.6778V94.6765Z" fill="white"/>
<path d="M21.3766 82.1219L17.9279 99.6306H15.4077L19.0554 82.1219H21.3766Z" fill="white"/>
<path d="M27.6107 97.641L28.7952 82.1803C29.1692 81.9177 30.7079 82.4841 31.1987 82.5968L30.1296 97.6424H27.6094L27.6107 97.641Z" fill="white"/>
<path d="M19.4532 78.0101C19.9069 78.1295 21.2466 79.5077 21.9018 79.6735L24.8252 80.9282H15.9382V78.0101H19.4532Z" fill="white"/>
<path d="M51.9227 39.1858C52.6376 38.6088 53.4454 39.2123 52.7901 40.2509C51.4571 42.3679 47.706 42.7194 45.5598 41.8227C44.9802 41.58 42.7638 40.1727 43.7877 39.471C44.3793 39.0664 44.898 39.906 45.2614 40.1315C47.2006 41.3359 49.5524 41.3678 51.355 39.8769C51.607 39.6686 51.7821 39.2999 51.9227 39.1858Z" fill="black"/>
<path d="M53.1828 31.348C55.5279 31.141 55.3435 36.4255 52.8738 35.5713C51.2343 35.0036 51.3046 31.5138 53.1828 31.348Z" fill="black"/>
<path d="M41.7729 32.0086C43.7679 31.7168 44.0729 35.1735 42.8593 36.0224C40.6097 37.5982 39.461 32.3456 41.7729 32.0086Z" fill="black"/>
<path d="M36.1 66.7342C36.2551 66.1705 36.8679 65.945 36.9979 65.3123C37.5338 62.6953 35.1861 61.4591 32.9139 62.1568C32.2984 62.3451 30.8725 63.2498 30.6285 63.8506C29.8035 65.884 32.4483 66.9664 33.9724 67.3364C34.7682 67.5301 35.6689 67.1799 35.7087 68.1296C35.763 69.4189 34.7642 69.8261 33.6501 69.923C26.433 70.5517 17.3219 61.8066 20.8621 54.4821C26.059 43.7289 50.3802 53.429 47.5443 64.0536C46.9951 66.1122 45.5812 67.4943 43.5067 67.9745C40.9931 68.5567 38.4411 67.5672 36.1 66.7342ZM28.6402 51.5163C26.7766 51.7869 25.2127 53.4754 26.5511 55.2607C27.8894 57.0461 31.8501 57.0633 32.7176 54.9291C33.6859 52.5456 30.6205 51.2284 28.6415 51.5163H28.6402ZM36.4634 53.6359C35.2192 53.8481 34.1514 54.9411 34.4353 56.2648C34.9513 58.6763 38.7037 59.5835 40.1044 57.4095C41.5688 55.1374 38.5551 53.2804 36.4634 53.6359ZM29.952 61.7814C31.4469 60.1831 29.7968 58.3354 28.2316 57.6921C26.8628 57.1297 23.82 56.9745 23.1369 58.6139C21.8529 61.6925 27.7276 64.161 29.9533 61.7827L29.952 61.7814ZM41.9044 60.1393C38.3509 60.6274 38.3628 65.5842 42.2665 65.2752C46.5057 64.9396 46.0003 59.5756 41.9044 60.1393Z" fill="white"/>
<path d="M34.085 63.1914C36.7379 63.0057 36.1795 66.6308 33.6036 65.9821C33.1393 65.8654 31.7651 65.181 31.7161 64.6743C31.9588 63.7272 33.1844 63.2563 34.0864 63.1927L34.085 63.1914Z" fill="white"/>
<path d="M28.6401 51.5163C30.6191 51.2285 33.6844 52.5456 32.7161 54.9292C31.85 57.0634 27.8376 56.9785 26.5496 55.2608C25.2617 53.543 26.7751 51.7869 28.6387 51.5163H28.6401Z" fill="black"/>
<path d="M41.9042 60.1392C46.0002 59.5768 46.5056 64.9408 42.2663 65.2751C38.3614 65.5841 38.3508 60.6273 41.9042 60.1392Z" fill="black"/>
<path d="M36.4632 53.636C38.5549 53.2805 41.5699 55.1375 40.1042 57.4096C38.7022 59.5836 34.9511 58.6764 34.4351 56.2649C34.1512 54.9412 35.219 53.8482 36.4632 53.636Z" fill="black"/>
<path d="M29.9519 61.7815C27.7275 64.1598 21.8528 61.6926 23.1354 58.6127C23.8185 56.9746 26.8613 57.1284 28.2302 57.6908C29.7967 58.3341 31.4454 60.1832 29.9506 61.7802L29.9519 61.7815ZM25.5893 58.4071C25.1264 58.4694 24.3518 58.813 24.2138 59.3051C23.8318 60.6766 27.9994 62.5999 29.1282 60.8915C30.0832 59.447 26.7022 58.2572 25.5893 58.4071Z" fill="black"/>
<path d="M25.5894 58.4069C26.7022 58.2557 30.0833 59.4455 29.1282 60.8913C27.9995 62.5997 23.8319 60.6764 24.2139 59.3049C24.3505 58.8128 25.1264 58.4706 25.5894 58.4069Z" fill="white"/>
</svg>
