<svg width="117" height="117" viewBox="0 0 117 117" fill="none" xmlns="http://www.w3.org/2000/svg">
<path d="M64.8583 13.6367C66.1277 14.8158 65.3621 17.0792 63.7591 17.4871C63.5934 17.7248 65.2467 20.0705 65.5381 20.4407C66.1334 21.1982 67.6439 22.4311 67.7444 23.2629C67.9329 24.8236 66.5104 25.1436 65.2902 25.3584C65.3039 27.4459 64.936 29.7184 62.8816 30.7193L61.1277 31.1924C64.6377 31.5351 67.9672 32.8423 71.0705 34.4476C72.8072 35.3456 74.3451 36.5979 76.3 36.9875C77.8471 37.296 79.8203 37.4628 81.4097 37.5908C82.8242 37.7051 85.4521 38.0044 86.7158 37.6434C87.6858 37.3657 88.753 36.7819 89.747 36.4471C91.2667 35.9352 95.2303 34.7938 96.6277 35.5125C97.4035 35.9112 97.1898 36.3248 97.3532 36.9373C97.3646 36.9807 97.7839 37.304 97.8662 37.5874C98.1838 38.6751 97.512 38.682 97.3703 39.1573C97.2664 39.5058 97.4172 39.94 97.2961 40.3399C96.9636 41.4333 94.2385 41.5521 93.3473 41.8755C91.6392 42.4948 89.6465 43.9687 87.687 43.9938C86.8757 44.0041 85.9286 43.7322 85.0602 43.7573C80.7218 43.8841 77.4895 44.9239 72.9866 43.843C70.1118 43.1529 67.3434 42.0137 64.4549 41.3716L61.6922 50.4288L70.426 55.2025C71.4178 56.6456 73.4025 57.3083 74.288 58.8828C75.6373 61.2799 74.6387 65.5828 74.3839 68.2713C74.2274 69.9201 74.1212 71.5859 74.0412 73.2404C80.8692 73.8951 87.9886 74.3693 94.6316 76.13C96.8367 76.715 102.41 78.1112 99.9766 81.4098C98.1998 83.8184 92.167 85.178 89.3506 85.9241C89.2683 86.2315 89.5391 86.1367 89.6945 86.3183C90.2452 86.9605 90.7799 87.7968 90.8416 88.6606C95.789 88.2367 100.445 92.1752 98.4329 97.3476C96.9053 101.274 91.7797 102.659 88.0526 101.256C85.0031 104.492 80.2557 104.235 76.7331 101.912C72.95 107.865 63.2015 107.991 59.1842 102.262C59.1008 102.202 57.8805 103.539 57.7023 103.691C54.3683 106.534 49.51 107.168 45.4779 105.516C43.4475 104.684 41.7805 103.067 40.7887 101.119L40.6253 101.123C39.3879 102.201 37.9186 103.008 36.3349 103.46C31.0071 104.985 24.2853 102.705 23.9962 96.4336C21.6425 96.5341 19.2134 96.1182 17.2196 94.8123C11.5399 91.0932 13.9027 83.1934 19.4991 80.7963C20.0258 80.5712 21.8905 80.1381 22.095 79.9907C22.2241 79.8982 22.2721 79.3303 22.3749 79.1018C23.2456 77.1674 28.6442 75.9437 30.6209 75.4661C31.8937 75.1588 33.7333 74.9794 34.877 74.5806C35.045 74.5224 35.2015 74.4858 35.2918 74.3098L40.3203 63.1263C40.3031 62.8966 39.1365 62.8326 39.2165 61.8992C40.7499 57.5265 42.065 53.0842 43.8257 48.7949L45.0197 39.5355C42.9139 40.2062 40.8344 41.0071 38.7092 41.6218C36.1647 42.3576 34.9364 42.4776 32.2811 42.2754C30.1822 42.1166 27.9313 41.575 25.8815 41.4779C24.2819 41.4024 23.8408 41.6904 22.1098 41.1362C20.8804 40.742 19.8704 39.9662 18.8569 39.5903C17.7486 39.1779 15.179 39.1344 14.8819 37.6228C14.8008 37.2103 14.9699 36.9955 14.9584 36.7293C14.9402 36.318 14.4191 36.0232 14.6797 35.1857C14.8156 34.7481 15.3366 34.6098 15.4783 34.3859C15.7525 33.954 15.5629 33.4535 16.4244 33.2764C17.3476 33.0868 19.6567 33.5712 20.6622 33.7849C22.4321 34.1608 24.9526 35.3411 26.4654 35.5227C28.3278 35.7467 32.6456 35.6998 34.5502 35.5205C36.3441 35.3525 40.4539 32.8685 42.3506 32.0093C44.445 31.061 46.0457 30.3012 48.3914 30.0521C49.6563 29.9173 50.9359 29.9424 52.2065 29.9241C52.5093 28.8981 52.3539 27.8138 52.5458 26.79L52.4476 26.678C51.7175 26.7854 50.8845 26.5307 50.2835 26.101C50.0402 25.9274 49.59 25.3172 49.3958 25.2681C49.1718 25.211 48.8667 25.4441 48.6097 25.4703C45.8286 25.7526 44.3318 23.36 45.6869 20.9823C43.4098 18.8331 44.7637 15.7104 47.7127 15.3185C47.7127 12.9968 49.7442 11.1378 52.0454 11.3138C52.3905 11.3401 53.0086 11.5949 53.2782 11.5229C53.4233 11.484 54.2049 10.6362 54.5831 10.4203C55.7154 9.77132 56.9493 9.75304 58.0816 10.418C58.2873 10.5391 58.7866 11.0327 58.918 11.059C59.094 11.0944 59.6561 10.7882 59.9395 10.7494C61.1003 10.5905 62.2498 10.9984 63.0153 11.8805C63.3044 12.213 63.47 12.7843 63.6448 12.9648C63.8528 13.1785 64.5486 13.3476 64.8594 13.6355L64.8583 13.6367ZM62.0155 15.1094C62.1629 15.2603 62.2132 15.8521 62.4474 16.1046C63.2335 16.9501 64.8137 15.3025 63.75 14.5736C63.4038 14.3359 62.9776 14.377 62.6634 14.0606C62.0749 13.4687 62.2338 12.5478 61.1277 12.1696C59.9646 11.772 59.3933 12.5969 58.8152 12.5478C58.1833 12.4929 57.5778 11.3229 56.6043 11.2075C54.8241 10.9962 54.3911 12.8654 53.501 13.006C52.9892 13.0871 52.1836 12.6586 51.5872 12.6735C50.7714 12.6952 49.6643 13.335 49.3375 14.0903C49.0644 14.721 49.2084 15.2008 49.1033 15.7984C48.9239 16.8165 48.1058 16.5971 47.3654 16.8027C45.8309 17.2301 45.4596 18.7246 46.5553 19.8843C46.8181 20.1631 47.3563 20.3904 47.4168 20.7435C47.5745 21.6678 45.9303 21.7787 46.6673 23.3154C47.1003 24.2169 48.0384 24.3003 48.8942 23.985C48.2166 21.3788 50.2812 19.1804 52.8258 20.6989C53.1 20.8623 53.5639 21.5284 53.8792 21.2622C54.238 20.9583 54.1992 19.9631 54.1077 19.5324C53.9352 18.7188 53.5102 18.8788 53.012 18.4572C52.7721 18.2538 52.2979 17.6243 52.3276 17.3158L52.5596 16.9661C53.2817 16.6074 54.4574 18.3601 55.7016 17.4814C56.4443 16.9581 56.6523 15.0854 56.9779 14.9815C57.6395 14.7712 57.852 15.5413 58.3707 15.8395C59.0905 16.2543 59.7189 16.2109 60.4079 15.7881C60.8147 15.5391 61.4751 14.5576 62.0167 15.1083L62.0155 15.1094ZM66.2431 23.7382L66.3402 23.48C65.4981 22.4162 64.592 21.4885 63.8219 20.3276C63.3009 19.5415 62.8393 18.4241 62.3195 17.7168C62.027 17.3203 61.5585 17.1958 61.3585 16.7296C60.1337 17.4037 58.7866 17.7499 57.5869 16.7959C57.3161 17.8756 56.5186 18.7337 55.4606 19.0765C55.6228 20.2031 55.5931 21.6998 54.6699 22.5065C53.1537 23.8342 52.2476 21.0131 50.7314 21.6541C49.4563 22.1934 50.2641 25.6554 52.3573 25.3401C52.7424 25.2818 53.1983 24.8419 53.5879 25.0762C53.9306 25.2818 53.8404 27.647 53.8198 28.168C53.7992 28.689 53.7513 29.3837 53.6998 29.8761C53.4942 31.8459 53.3045 31.2187 51.706 31.1867C48.0498 31.1147 46.2937 31.5374 43.0339 33.0354C40.7579 34.0808 37.0753 36.4848 34.7673 36.7373C32.9735 36.9327 27.8136 37.0424 26.1146 36.783C25.1502 36.6356 23.2501 35.7124 22.1384 35.3891C20.4371 34.8932 18.7278 34.5401 16.9534 34.403C16.782 34.3893 16.6358 34.3105 16.6815 34.5607C17.9132 35.1537 19.3951 35.2588 20.6416 35.8564C21.6242 36.3271 22.5794 37.2332 23.5986 37.6982C24.1413 38.4763 23.3792 38.6545 22.6948 38.6077C22.4332 38.5894 19.4568 37.6754 19.6522 38.5586C19.771 39.0967 23.4558 40.3844 24.0774 40.4198C24.7332 40.4575 25.5856 40.2862 26.3328 40.3341C29.3058 40.525 32.705 41.4002 35.702 41.1305C38.8246 40.8494 42.8054 38.7882 45.9303 37.9919C46.4982 37.8467 47.3494 37.6114 47.1871 38.5574C47.0957 39.0899 46.3793 38.987 46.2879 39.2624C46.0377 42.4833 45.2413 45.6597 45.1488 48.8841C47.0832 49.8107 49.3592 50.4117 51.4878 50.7145C54.3488 51.1212 57.7251 51.2743 60.4148 50.1317C61.3985 46.9108 62.3652 43.6659 63.5237 40.5021C63.8002 39.748 64.1247 37.9656 65.1279 38.9288L64.9051 40.0371L65.0879 40.197C68.3683 41.0243 72.0051 42.7164 75.3654 43.0603C78.5578 43.386 81.7741 42.7381 84.9436 42.6136C86.3639 42.5576 87.4162 42.9141 88.865 42.5359C89.338 42.4125 92.5441 41.1294 92.5441 40.8472C92.2847 40.4964 91.6426 40.341 91.2255 40.3296C90.4669 40.3079 87.7978 41.3225 88.6308 39.7571C89.6259 39.2601 90.6143 38.4123 91.6334 37.993C92.9428 37.4537 94.6498 37.4594 95.8873 36.991C96.0267 36.9384 96.1146 36.8481 96.2015 36.7327C96.334 36.3968 95.2417 36.4391 95.1126 36.4448C93.3587 36.5191 91.1798 37.24 89.5162 37.8182C87.2962 38.5894 86.8415 39.1779 84.2638 39.0762C81.8278 38.9802 78.5669 38.6957 76.1869 38.2409C73.8332 37.7919 71.9137 36.3088 69.8125 35.2462C67.6953 34.1768 65.417 33.185 63.0736 32.7303C62.3275 32.5863 60.5073 32.5212 59.9909 32.271C59.3145 31.9442 59.8778 31.0804 59.7567 30.9639C59.2996 31.0153 58.8883 30.8645 58.4701 30.7079C57.9719 30.5217 56.1335 29.4568 56.6066 28.7861C56.9219 28.3394 57.9445 29.1677 58.2724 29.306C60.3805 30.1926 63.6894 30.3274 63.7534 27.3087C63.1672 27.4961 62.404 27.5453 61.8121 27.3647C61.3997 27.2391 60.2365 26.6678 60.6593 26.1273C61.1243 25.7537 61.3163 26.2553 61.7093 26.4392C62.1915 26.6655 63.7625 26.7923 63.9648 26.2039C64.1327 25.7137 63.7922 24.4123 64.0859 24.0398C64.3944 23.6491 65.77 24.0901 66.2419 23.7382H66.2431ZM20.108 36.9064L15.6531 35.6484C15.6257 35.8929 15.8896 36.0917 16.0793 36.1923C16.3135 36.3168 19.1757 37.1749 19.4122 37.1932C19.5093 37.2012 20.0795 37.0584 20.108 36.9053V36.9064ZM18.6227 38.3918C18.6798 38.0764 18.8181 38.0764 18.4776 37.9084C18.2913 37.817 16.0919 37.1635 15.9959 37.2492C15.9571 37.488 16.1387 37.576 16.309 37.6765C16.9671 38.0661 17.9166 38.1015 18.6216 38.3918H18.6227ZM96.7762 38.049C96.5694 37.8673 93.1679 38.7391 92.6675 38.9093C92.4458 38.9848 91.9888 39.1139 91.8642 39.3035C92.1522 39.2898 92.4161 39.4281 92.7052 39.4132C93.2765 39.3835 95.5548 38.8248 96.1421 38.6134C96.4128 38.5163 96.7888 38.4158 96.7762 38.049ZM96.1878 39.9742L96.1501 39.6497L93.5838 40.2256L93.5781 40.6746C93.9803 40.5935 96.0461 40.2027 96.1889 39.9742H96.1878ZM63.173 62.8338C64.7646 60.2436 66.9869 58.1161 68.8984 55.8172L60.9278 51.4366C58.7455 51.9667 56.61 52.3175 54.3248 52.2215C51.0079 52.081 47.6773 51.304 44.6198 50.0426L40.5613 61.8112C43.6532 62.9218 46.769 64.0621 50.039 64.5522C50.7029 62.8521 51.4033 61.0159 52.2705 59.4118C52.7458 58.5331 53.5365 56.8467 54.2791 58.5503L63.1718 62.8338H63.173ZM65.241 62.0408C65.9643 62.4407 67.1411 62.9606 67.749 63.4759C67.9055 63.6085 68.0266 63.7456 68.0723 63.9524C68.1512 65.2549 68.1123 66.6306 68.2117 67.9263C68.3705 69.9943 68.8516 72.2955 68.9007 74.3213C68.9304 75.537 68.4151 76.6053 68.3271 77.7559C68.2037 79.3863 68.9064 79.3509 70.2432 79.6068C72.197 79.9805 77.5923 80.9128 79.2707 80.3598C79.9883 80.1233 80.3162 79.6982 79.6307 79.1315C78.0916 78.4003 76.46 77.6576 74.9884 76.8029C74.4719 76.5024 72.9934 75.7198 72.8312 75.1896C72.6872 74.7212 72.7546 73.1867 72.7809 72.6143C72.8849 70.4102 73.2973 68.0885 73.4642 65.8708C73.5853 64.2586 73.9452 61.5061 73.471 60.039C73.1637 59.0896 71.3321 57.5425 70.4832 56.9712C70.3152 56.8581 70.1061 56.6319 69.889 56.6867C69.6719 56.7416 67.6553 58.9479 67.3502 59.3009C66.6007 60.1682 65.8912 61.1016 65.2387 62.0431L65.241 62.0408ZM67.5262 72.8953C67.3582 71.7093 67.1583 70.4913 67.0703 69.2962C67.0292 68.7341 66.98 68.1468 66.9503 67.5881C66.9183 66.9722 67.0863 64.7042 66.8486 64.3763L64.5121 62.964C64.2081 63.0177 63.6277 64.5956 62.9559 64.2792C59.9486 62.539 56.7791 61.1176 53.6381 59.6414C53.3708 59.646 53.0063 60.5509 52.8806 60.8217C52.1802 62.3311 51.6809 63.9421 51.0125 65.4663C50.4058 66.2844 48.9901 65.4069 48.6874 65.5965C47.7562 68.8872 45.4184 71.2569 43.3024 73.8082C44.5055 73.7751 45.7075 73.5569 46.9026 73.4678C50.4184 73.205 53.8987 73.1033 57.4178 73.0142C57.6886 73.0073 57.9377 72.8965 58.2085 72.8908L67.525 72.8942L67.5262 72.8953ZM47.4168 65.2423L41.4765 63.4131C39.2485 68.7009 36.856 73.9191 34.324 79.0664C34.1755 79.4 34.6611 79.7714 34.9079 79.9782C36.2652 81.115 38.7595 82.2485 40.5168 82.4816C40.8755 82.5295 41.248 82.4176 41.5874 82.6095L41.1223 81.5401C42.129 80.7231 42.6991 82.9843 43.6486 82.4416C43.836 82.3056 43.62 82.1045 43.5298 81.9823C43.3172 81.6955 43.0065 81.4841 42.7242 81.2773C42.963 79.7874 44.3376 81.4327 44.8609 81.916C45.4379 81.6555 45.5304 81.3436 45.0722 80.8979C43.7583 79.624 41.1566 78.6631 39.7238 77.4485C38.9377 76.7824 39.5833 76.3699 40.1066 75.7004C42.682 72.404 46.3816 69.4447 47.4168 65.2435V65.2423ZM44.9603 79.4092H67.2977C66.643 77.6884 67.8004 75.9106 67.6416 74.1522L61.7539 74.0322L52.611 74.2619L42.2386 75.0868L40.9041 76.7778L44.9603 79.408V79.4092ZM81.4085 79.4092H98.9471C99.0168 79.1418 98.8831 79.2172 98.802 79.1475C96.4094 77.0852 87.6778 75.8637 84.3632 75.4261C80.9435 74.976 77.4838 74.64 74.04 74.4961C74.0012 74.6766 74.0949 74.7326 74.2103 74.8389C75.8179 76.3185 79.0068 77.1571 80.683 78.4208C81.0269 78.6802 81.3502 79.3886 81.4097 79.408L81.4085 79.4092ZM34.3903 75.8672C31.8058 76.4293 29.1675 76.8978 26.6767 77.8073C25.6404 78.1855 24.4224 78.5968 23.7654 79.5223L32.8329 79.3932L34.3903 75.8672ZM98.8328 80.5517H81.0657C81.0212 80.5517 80.5779 81.0716 80.4305 81.1733C78.2996 82.629 71.5595 80.8385 68.959 80.5483L46.6181 80.5529C47.3323 83.0083 44.141 83.6927 42.338 83.7578C39.0246 83.8755 36.239 82.4244 33.643 80.5586L23.994 80.6683C25.108 82.0622 26.9772 82.8003 28.6191 83.4116C37.7792 86.8199 49.6311 87.4084 59.3636 87.5192C70.1815 87.6426 83.3566 87.1101 93.6364 83.5259C95.4691 82.8872 97.5783 82.0771 98.8328 80.5529V80.5517ZM22.7131 81.2624C21.8825 80.7814 18.8352 82.4496 18.1063 83.062C12.9064 87.4369 14.9093 94.5666 21.7796 95.1619C22.3818 95.2144 22.9908 95.139 23.5918 95.1779C23.786 95.1905 24.8509 95.3127 24.908 95.347C25.164 95.4967 25.2039 96.7455 25.2851 97.1408C26.5568 103.241 34.6234 104.216 38.9971 100.871C39.4588 100.518 40.6025 99.1289 41.0686 99.1735C41.4366 99.2089 41.8787 100.611 42.0992 101.007C45.1134 106.413 53.9958 106.507 57.8086 101.859C58.2679 101.299 58.758 99.7631 59.4596 100.443C59.8081 100.78 60.2343 101.715 60.665 102.208C64.6275 106.744 72.2302 106.093 75.7299 101.271C76.035 100.851 76.1207 100.072 76.8908 100.379C79.3279 102.667 83.7451 103.348 86.4313 101.118C86.7683 100.838 87.4173 99.899 87.6973 99.8613C88.104 99.8065 89.7276 100.484 90.4349 100.548C98.0353 101.232 100.522 92.1946 93.7141 90.1848C92.4173 89.8021 91.2804 90.0294 89.9938 89.8192C89.5699 88.3293 89.0981 86.8793 87.4219 86.4429C73.5464 89.0674 58.7866 89.5381 44.7306 87.9796C39.3685 87.3855 27.5451 85.5951 23.4809 82.1502C23.2616 81.964 22.7623 81.2944 22.7108 81.2647L22.7131 81.2624Z" fill="black"/>
<path d="M10.3405 71.9824H24.5084C24.8238 71.9824 25.1174 73.0016 23.9371 73.125C19.8547 73.5512 15.0639 72.8028 10.9072 73.1307C10.1828 73.1558 9.6972 72.5069 10.3416 71.9824H10.3405Z" fill="black"/>
<path d="M14.5862 66.8591L28.4011 66.946L28.6399 67.355C28.5394 67.7309 28.2103 67.972 27.8241 67.9857L14.6273 67.9229C14.1875 67.6567 14.16 67.1573 14.5862 66.8591Z" fill="black"/>
<path d="M22.7134 81.2624C22.7637 81.2921 23.263 81.9617 23.4835 82.1479C27.5477 85.5928 39.3711 87.3832 44.7332 87.9774C58.7892 89.5358 73.549 89.0651 87.4245 86.4406C89.1006 86.8771 89.5714 88.327 89.9964 89.8169C91.283 90.026 92.4198 89.7998 93.7166 90.1825C100.523 92.1923 98.0379 101.23 90.4375 100.546C89.7302 100.482 88.1066 99.8042 87.6998 99.859C87.421 99.8967 86.7709 100.836 86.4339 101.116C83.7477 103.347 79.3316 102.665 76.8933 100.377C76.1232 100.069 76.0375 100.85 75.7325 101.269C72.2328 106.091 64.63 106.742 60.6676 102.206C60.2368 101.713 59.8106 100.778 59.4622 100.441C58.7606 99.7608 58.2704 101.296 57.8111 101.856C53.9983 106.504 45.1159 106.411 42.1018 101.005C41.8813 100.61 41.4403 99.2078 41.0712 99.1712C40.605 99.1255 39.4602 100.516 38.9997 100.869C34.6259 104.213 26.5593 103.239 25.2876 97.1386C25.2054 96.7444 25.1665 95.4955 24.9106 95.3447C24.8535 95.3116 23.7886 95.1882 23.5943 95.1756C22.9922 95.1379 22.3844 95.2122 21.7822 95.1596C14.9119 94.5643 12.909 87.4346 18.1088 83.0597C18.8378 82.4462 21.885 80.7791 22.7157 81.2602L22.7134 81.2624Z" fill="white"/>
<path d="M66.2433 23.7382C65.7714 24.0901 64.3957 23.6491 64.0872 24.0398C63.7787 24.4306 64.1341 25.7137 63.9661 26.2039C63.765 26.7912 62.1928 26.6643 61.7106 26.4392C61.3165 26.2541 61.1245 25.7537 60.6606 26.1273C60.2367 26.6678 61.401 27.239 61.8135 27.3647C62.4053 27.5453 63.1686 27.4961 63.7547 27.3087C63.6896 30.3286 60.3807 30.1926 58.2738 29.306C57.9459 29.1677 56.9232 28.3394 56.6079 28.7861C56.1337 29.4568 57.9733 30.5217 58.4714 30.7079C58.8896 30.8644 59.3021 31.0164 59.758 30.9639C59.8802 31.0793 59.3169 31.9442 59.9922 32.271C60.5087 32.5212 62.3288 32.5863 63.0749 32.7303C65.4195 33.185 67.6978 34.1756 69.8138 35.2462C71.915 36.3077 73.8345 37.7919 76.1882 38.2409C78.5682 38.6945 81.8303 38.9802 84.2651 39.0762C86.8428 39.1778 87.2987 38.5906 89.5176 37.8182C91.1812 37.24 93.3601 36.5179 95.1139 36.4448C95.243 36.4391 96.3353 36.3968 96.2028 36.7327C96.116 36.8481 96.028 36.9384 95.8886 36.991C94.6512 37.4594 92.9453 37.4537 91.6348 37.993C90.6156 38.4123 89.6273 39.2601 88.6321 39.7571C87.7991 41.3225 90.4682 40.309 91.2269 40.3296C91.6439 40.341 92.286 40.4964 92.5454 40.8472C92.5454 41.1294 89.3393 42.4125 88.8663 42.5359C87.4175 42.9141 86.3652 42.5576 84.945 42.6136C81.7755 42.7393 78.5591 43.3871 75.3667 43.0603C72.0064 42.7176 68.3707 41.0254 65.0892 40.197L64.9064 40.0371L65.1292 38.9288C64.1261 37.9656 63.8004 39.748 63.5251 40.5021C62.3665 43.6659 61.3999 46.9108 60.4161 50.1317C57.7265 51.2743 54.3502 51.1212 51.4891 50.7145C49.3617 50.4117 47.0845 49.8118 45.1501 48.884C45.2427 45.6597 46.039 42.4833 46.2893 39.2624C46.3807 38.987 47.0971 39.0899 47.1885 38.5574C47.3519 37.6125 46.4995 37.8479 45.9316 37.9919C42.8067 38.7882 38.826 40.8506 35.7033 41.1305C32.7063 41.4002 29.3071 40.5249 26.3341 40.3341C25.5869 40.2861 24.7345 40.4575 24.0787 40.4198C23.4571 40.3844 19.7723 39.0956 19.6535 38.5586C19.4581 37.6754 22.4345 38.5894 22.6962 38.6077C23.3806 38.6545 24.1415 38.4763 23.6 37.6982C22.5808 37.2332 21.6256 36.3283 20.643 35.8564C19.3953 35.2577 17.9145 35.1537 16.6828 34.5607C16.6371 34.3093 16.7833 34.3893 16.9547 34.403C18.7291 34.5401 20.4384 34.8932 22.1397 35.3891C23.2515 35.7124 25.1504 36.6356 26.1159 36.783C27.8149 37.0424 32.9759 36.9327 34.7687 36.7373C37.0767 36.4848 40.7592 34.0808 43.0352 33.0353C46.295 31.5374 48.0511 31.1147 51.7074 31.1867C53.3058 31.2186 53.4955 31.8459 53.7012 29.8761C53.7526 29.3837 53.8017 28.6673 53.8211 28.168C53.8406 27.6687 53.932 25.2818 53.5892 25.0761C53.1996 24.8419 52.7437 25.2818 52.3586 25.3401C50.2666 25.6554 49.4576 22.1934 50.7328 21.6541C52.249 21.0131 53.155 23.8342 54.6712 22.5065C55.5933 21.6987 55.623 20.2019 55.4619 19.0765C56.5199 18.7326 57.3174 17.8756 57.5882 16.7959C58.7879 17.7511 60.135 17.4049 61.3599 16.7296C61.561 17.1958 62.0294 17.3192 62.3208 17.7168C62.8407 18.4241 63.3023 19.5415 63.8233 20.3276C64.5934 21.4885 65.4994 22.4162 66.3415 23.48L66.2444 23.7382H66.2433ZM61.1119 18.9816C60.3316 18.3109 57.8727 19.8991 58.4349 20.6864C58.7994 21.196 59.3672 20.1002 59.7157 19.898C60.1419 19.65 60.5521 19.674 61.0205 19.6032L61.1119 18.9816ZM60.8674 21.3868C60.3373 21.5433 60.1225 22.5293 60.6709 22.7944C61.8946 23.3851 62.0866 21.0268 60.8674 21.3868Z" fill="white"/>
<path d="M98.833 80.5517C97.5785 82.0759 95.4693 82.886 93.6366 83.5247C83.3568 87.1089 70.1817 87.6414 59.3638 87.518C49.6325 87.4072 37.7805 86.8187 28.6193 83.4104C26.9774 82.7991 25.1082 82.061 23.9941 80.6671L33.6432 80.5574C36.238 82.4232 39.0248 83.8743 42.3382 83.7566C44.1412 83.6926 47.3336 83.0082 46.6183 80.5517L68.9592 80.5471C71.5597 80.8373 78.2997 82.6278 80.4306 81.1721C80.578 81.0716 81.0225 80.5505 81.0659 80.5505H98.833V80.5517Z" fill="white"/>
<path d="M63.173 62.8338L54.2803 58.5502C53.5376 56.8467 52.7458 58.5331 52.2716 59.4117C51.4044 61.0159 50.704 62.852 50.0402 64.5522C46.7701 64.062 43.6532 62.9217 40.5625 61.8112L44.6209 50.0426C47.6773 51.304 51.0091 52.081 54.326 52.2215C56.6123 52.3186 58.7466 51.9667 60.929 51.4365L68.8996 55.8172C66.988 58.1161 64.7657 60.2435 63.1741 62.8338H63.173Z" fill="white"/>
<path d="M65.2412 62.0408C65.8936 61.0982 66.6043 60.1659 67.3527 59.2986C67.6578 58.9456 69.6778 56.7393 69.8915 56.6844C70.1052 56.6296 70.3177 56.857 70.4856 56.9689C71.3346 57.5402 73.1661 59.0861 73.4735 60.0368C73.9477 61.5038 73.5877 64.2563 73.4666 65.8685C73.2998 68.0862 72.8873 70.4079 72.7834 72.612C72.7559 73.1844 72.6897 74.72 72.8336 75.1873C72.9959 75.7164 74.4744 76.5002 74.9908 76.8007C76.4625 77.6553 78.0929 78.3968 79.6331 79.1292C80.3187 79.696 79.9908 80.121 79.2732 80.3575C77.5948 80.9105 72.1995 79.9782 70.2457 79.6045C68.9089 79.3486 68.2062 79.384 68.3296 77.7536C68.4164 76.603 68.9317 75.5358 68.9032 74.319C68.854 72.2932 68.3742 69.992 68.2142 67.924C68.1148 66.6294 68.1536 65.2526 68.0748 63.9501C68.0291 63.7433 67.908 63.6062 67.7515 63.4736C67.1436 62.9583 65.9668 62.4384 65.2435 62.0385L65.2412 62.0408Z" fill="white"/>
<path d="M44.9604 79.4092L40.9043 76.7789L42.2388 75.0879L52.6112 74.263L61.7541 74.0333L67.6418 74.1533C67.8006 75.9106 66.6443 77.6884 67.2979 79.4103H44.9604V79.4092Z" fill="white"/>
<path d="M47.4171 65.2424C46.382 69.4437 42.6823 72.4029 40.1069 75.6993C39.5848 76.3677 38.9381 76.7813 39.7242 77.4474C41.1569 78.662 43.7586 79.6229 45.0726 80.8969C45.5319 81.3425 45.4393 81.6544 44.8612 81.9149C44.3379 81.4316 42.9634 79.7874 42.7246 81.2762C43.0068 81.483 43.3187 81.6944 43.5301 81.9812C43.6203 82.1034 43.8363 82.3045 43.6489 82.4405C42.7006 82.9821 42.1304 80.722 41.1227 81.539L41.5877 82.6084C41.2484 82.4165 40.8759 82.5285 40.5171 82.4805C38.7587 82.2485 36.2656 81.1139 34.9082 79.9771C34.6614 79.7703 34.1758 79.3989 34.3243 79.0653C36.8563 73.918 39.25 68.6998 41.4769 63.412L47.4171 65.2413V65.2424Z" fill="white"/>
<path d="M62.0156 15.1095C61.4751 14.5588 60.8147 15.5402 60.4068 15.7893C59.7178 16.2121 59.0883 16.2555 58.3696 15.8407C57.852 15.5425 57.6384 14.7724 56.9768 14.9826C56.65 15.0866 56.4432 16.9582 55.7005 17.4826C54.4563 18.3601 53.2817 16.6074 52.5585 16.9673L52.3265 17.3169C52.2979 17.6254 52.771 18.255 53.0109 18.4584C53.5079 18.88 53.9341 18.72 54.1066 19.5335C54.1981 19.9643 54.2369 20.9595 53.8781 21.2634C53.5628 21.5308 53.1 20.8646 52.8247 20.7001C50.2802 19.1816 48.2155 21.3799 48.8931 23.9862C48.0384 24.3015 47.0992 24.217 46.6662 23.3166C45.9292 21.781 47.5734 21.669 47.4157 20.7447C47.3552 20.3916 46.8181 20.1642 46.5542 19.8854C45.4573 18.7257 45.8298 17.2312 47.3643 16.8039C48.1035 16.5983 48.9228 16.8176 49.1022 15.7996C49.2073 15.202 49.0633 14.7221 49.3364 14.0914C49.6632 13.3373 50.7703 12.6963 51.5861 12.6746C52.1814 12.6586 52.9881 13.0883 53.4999 13.0071C54.39 12.8654 54.823 10.9962 56.6032 11.2087C57.5767 11.3241 58.1822 12.4953 58.8141 12.549C59.3922 12.5992 59.9646 11.7731 61.1266 12.1708C62.2886 12.5684 62.075 13.4699 62.6623 14.0617C62.9765 14.3782 63.4027 14.3371 63.7489 14.5747C64.8126 15.3037 63.2324 16.9502 62.4463 16.1058C62.2121 15.8544 62.1618 15.2614 62.0144 15.1106L62.0156 15.1095Z" fill="white"/>
<path d="M81.4086 79.4091C81.3492 79.3897 81.0258 78.6813 80.6819 78.4219C79.0069 77.1583 75.8168 76.3185 74.2092 74.84C74.0938 74.7337 74.0001 74.6777 74.039 74.4972C77.4838 74.64 80.9424 74.9759 84.3621 75.4273C87.6768 75.8637 96.4083 77.0863 98.8009 79.1486C98.8832 79.2195 99.0157 79.1429 98.946 79.4103H81.4074L81.4086 79.4091Z" fill="white"/>
<path d="M34.3905 75.8672L32.8331 79.3932L23.7656 79.5223C24.4226 78.5968 25.6406 78.1855 26.6769 77.8073C29.1677 76.8978 31.8059 76.4293 34.3905 75.8672Z" fill="white"/>
<path d="M96.7762 38.049C96.7899 38.4169 96.4129 38.5163 96.1421 38.6134C95.5536 38.8248 93.2765 39.3835 92.7052 39.4132C92.4173 39.4281 92.1522 39.2898 91.8643 39.3035C91.9899 39.1138 92.4458 38.9847 92.6675 38.9093C93.1668 38.7379 96.5694 37.8673 96.7762 38.049Z" fill="white"/>
<path d="M20.108 36.9064C20.0806 37.0583 19.5093 37.2012 19.4122 37.1943C19.1757 37.1749 16.3135 36.3168 16.0793 36.1934C15.8896 36.0929 15.6257 35.894 15.6531 35.6495L20.108 36.9075V36.9064Z" fill="white"/>
<path d="M18.6229 38.3918C17.9179 38.1015 16.9685 38.0661 16.3103 37.6765C16.139 37.5748 15.9584 37.488 15.9973 37.2492C16.0933 37.1635 18.2927 37.817 18.479 37.9084C18.8194 38.0764 18.6812 38.0764 18.6241 38.3918H18.6229Z" fill="white"/>
<path d="M96.1879 39.9743C96.0463 40.2028 93.9793 40.5947 93.5771 40.6747L93.5829 40.2256L96.1491 39.6498L96.1868 39.9743H96.1879Z" fill="white"/>
<path d="M61.1119 18.9816L61.0205 19.6032C60.552 19.6751 60.143 19.65 59.7157 19.8979C59.3672 20.1013 58.7993 21.1959 58.4348 20.6863C57.8715 19.8991 60.3304 18.3109 61.1119 18.9816Z" fill="black"/>
<path d="M60.8674 21.3867C62.0854 21.028 61.8946 23.3862 60.6709 22.7944C60.1225 22.5293 60.3373 21.5433 60.8674 21.3867Z" fill="black"/>
</svg>
