<svg width="117" height="117" viewBox="0 0 117 117" fill="none" xmlns="http://www.w3.org/2000/svg">
<path d="M59.1101 73.2607C55.4698 75.1071 52.3962 78.3517 50.9499 82.2032L45.0206 78.1181C45.0016 77.8622 46.3741 75.904 46.6468 75.6089C46.9397 75.2915 48.3971 74.2621 48.4396 74.1548C48.491 74.0252 48.4161 73.6049 48.3088 73.482C47.712 73.2607 46.8793 73.9805 46.4278 74.3839C43.9365 76.6059 43.1116 80.4798 41.6989 83.4014L41.4876 83.6473C38.3089 83.588 34.9894 82.7386 32.2958 81.0219C31.2809 80.3747 30.389 79.6527 29.8447 78.5473C31.3022 74.3124 31.1356 69.4851 33.6929 65.6548C33.8516 65.6291 35.0442 66.5222 35.3415 66.6876C40.4526 69.541 47.2862 70.3536 52.9919 69.3778C54.6528 70.4631 57.5532 71.5763 58.9413 72.9298C59.0498 73.036 59.1515 73.0774 59.1101 73.2618V73.2607Z" fill="white"/>
<path d="M61.798 93.7097C61.4471 92.2031 61.0984 90.6808 60.6692 89.1954C59.7985 86.1799 59.7393 84.2296 56.6925 82.7777C56.346 82.6123 55.1691 82.363 55.1042 82.0199C56.5807 79.2995 59.1525 77.168 61.7388 75.5161C63.3125 76.7858 64.8974 77.7895 65.8754 79.6303C67.8078 83.2661 67.6536 87.8766 68.1577 91.8812L67.9095 92.1763C65.8754 92.6737 63.9339 93.7824 61.798 93.7097Z" fill="white"/>
<path d="M38.2106 86.7869C36.7207 92.0031 31.1379 93.8517 26.6705 95.8233C24.8308 94.4072 23.4471 92.2155 23.9557 89.8001C25.9887 88.6992 28.0285 88.1773 29.2881 86.0794C29.7262 85.3484 29.9543 84.528 30.3309 83.7714C32.7026 85.3171 35.3985 86.3856 38.2117 86.788L38.2106 86.7869Z" fill="white"/>
<path d="M69.3994 100.529C69.4285 100.556 69.7381 100.552 69.8185 100.509C69.9393 100.442 70.8748 98.4588 71.1374 98.0844C71.6661 97.3299 71.9444 96.9198 72.8575 97.5714C72.4339 97.9693 71.2212 100.368 72.0383 100.632C72.1959 100.683 72.3546 100.673 72.4686 100.533C72.6575 100.302 72.9559 99.2915 73.1761 98.8947C73.5281 98.2599 73.8344 97.5814 74.648 97.8519C74.8202 98.4745 73.8377 100.257 74.03 100.645C74.4513 101.498 75.1231 100.13 75.2617 99.7508C75.4818 99.1428 75.5847 98.4979 75.5422 97.8519C77.1338 97.8407 79.2149 97.6731 80.1292 99.249L80.0733 99.4144C75.8272 102.566 70.5003 103.663 65.397 104.692L65.3623 105.265C65.6831 105.692 68.5835 105.072 69.177 104.953C72.3344 104.318 75.6808 103.218 78.4839 101.63C79.0573 101.304 80.1627 100.385 80.631 100.2C80.9808 100.063 80.7405 100.96 80.6679 101.131C80.0845 102.494 75.6417 104.425 74.1976 104.944C71.5062 105.912 68.6662 106.571 65.8765 107.191C65.1813 107.199 64.8192 105.776 64.647 105.227C64.1508 103.647 63.9138 101.937 63.8557 100.303C64.5576 100.169 65.1701 100.096 65.8485 99.8369C66.4454 99.6089 66.9416 99.1417 67.4166 98.9461C68.047 98.6868 68.9557 98.708 69.3826 97.9994C69.4698 97.2059 68.1778 97.9089 68.0671 97.4529C68.2169 96.7521 68.5053 95.9496 69.2284 95.6545C69.4877 95.8837 70.8591 96.5219 70.8558 96.7901C70.8558 96.8918 69.9437 98.1771 69.7884 98.5247C69.633 98.8723 69.1178 100.268 69.4016 100.531L69.3994 100.529Z" fill="white"/>
<path d="M21.6129 107.575C17.5971 107.031 15.9005 101.493 15.3282 98.1001C15.0354 96.3643 14.6051 94.4195 16.4146 93.4349C16.8114 93.2192 18.3079 92.629 18.7058 92.5944C18.9763 92.5709 18.7293 93.0314 18.7572 93.3253C18.8534 94.3648 19.7196 95.7138 20.4416 96.4526C20.702 96.7197 21.5325 97.2205 21.6789 97.4507C21.8465 97.7145 21.7258 98.0352 21.8309 98.1928C22.0153 98.4711 23.9019 98.0911 24.3535 98.2979L24.0606 99.296C23.4325 99.1898 22.7965 99.125 22.1796 98.9629C21.7225 98.8422 21.0664 98.2096 20.8909 98.9104C20.8618 99.7744 23.4403 100.334 24.1299 100.198L24.2406 101.203C23.2906 101.329 22.5015 100.945 21.8208 100.32C20.1365 101.417 23.5555 102.575 24.463 102.098L24.7983 103.216C23.8986 103.232 23.1095 103.158 22.3182 102.732C22.0231 102.573 21.6777 101.95 21.395 102.761C21.1882 103.353 21.7839 103.634 22.2522 103.808C23.5029 104.272 24.4272 103.939 25.6891 104.052C26.7844 105.005 28.0105 105.955 27.3701 107.576H21.614L21.6129 107.575ZM26.7934 105.915C24.8788 105.47 22.915 105.923 21.0697 105.1C18.4588 103.937 18.2565 100.106 17.5233 97.6932L17.2506 97.5088C16.3229 97.425 16.9321 99.6358 17.0505 100.178C17.9693 104.392 19.3373 106.583 23.9556 106.797C24.9 106.84 25.9372 106.874 26.79 106.438L26.7934 105.914V105.915Z" fill="white"/>
<path d="M68.7155 94.9336C68.0125 95.2901 67.2894 96.3028 67.0949 97.0617C67.0178 97.3646 67.1038 97.7021 66.9887 97.9614C66.5797 98.8835 64.3689 99.3406 63.4915 98.945L62.2498 94.7324C64.2694 94.4374 66.2153 93.7869 68.1086 93.0492L68.7144 94.9347L68.7155 94.9336Z" fill="white"/>
<path d="M61.3455 74.4924C59.1917 76.0013 57.0212 77.5549 55.3648 79.6304C54.4684 80.7537 53.505 82.1776 53.5217 83.6552L51.6306 82.751C52.8779 78.6848 56.2533 75.7967 59.7528 73.6128L61.3455 74.4924Z" fill="white"/>
<path d="M41.2283 84.2151C41.3579 84.3358 40.6437 85.981 40.2749 86.0101C37.2985 85.677 34.2953 84.9718 31.7369 83.3679C31.1725 83.0136 29.0243 81.5047 28.8667 80.9772C28.7091 80.4496 29.1484 79.8986 29.2702 79.4091C30.8618 81.4298 33.0681 82.609 35.47 83.4349C35.9551 83.6015 37.8931 84.2151 38.2664 84.2151H41.2283Z" fill="white"/>
<path d="M22.8984 90.3623V92.0947C22.8984 92.1964 23.2192 93.0861 23.2919 93.266C23.7781 94.4709 24.7203 95.4042 25.5775 96.3497C24.6208 97.7289 23.4863 97.2472 22.2826 96.5107C20.9034 95.6657 19.3163 93.8215 19.8796 92.0936L22.8984 90.3623Z" fill="white"/>
<path d="M26.7935 105.915L26.7901 106.439C25.9373 106.875 24.899 106.841 23.9557 106.798C19.3386 106.584 17.9694 104.393 17.0507 100.179C16.9322 99.6369 16.3242 97.425 17.2507 97.51L17.5234 97.6944C18.2566 100.107 18.4589 103.938 21.0698 105.101C22.9151 105.924 24.8789 105.471 26.7935 105.916V105.915Z" fill="black"/>
<path d="M64.5878 107.575C63.5339 105.862 63.1114 103.674 62.8141 101.692C62.718 101.054 62.7884 100.284 62.661 99.61C62.3178 97.7837 61.2795 95.4791 60.7318 93.6036C60.0925 91.4129 59.6074 89.0882 58.9167 86.9243C58.3009 84.9918 57.637 84.3391 55.8118 83.4338C54.6617 86.1151 52.5683 84.4911 50.8929 83.4349C48.767 82.0948 46.7575 80.5457 44.6428 79.1877L41.6094 86.1062C40.9399 87.2183 40.428 87.026 39.2164 87.0093C39.2645 87.5558 38.927 88.0632 38.6766 88.5371C36.6424 92.3898 33.732 93.7847 29.9799 95.5998C28.8309 96.1553 27.0326 96.6917 26.0334 97.3534C24.9571 98.0654 24.9962 100.598 25.3516 101.713C26.0792 103.996 29.658 104.685 28.3749 107.575L39.44 107.689L39.3204 108.462L12.1618 108.405C12.0702 107.432 12.638 107.523 13.3399 107.8L13.2315 107.573H18.6511C16.1855 105.436 14.956 101.776 14.3469 98.6343C14.0731 97.2215 13.7434 94.8967 14.4676 93.6114C15.2008 92.3104 18.5572 91.5973 19.9219 90.9066C20.8384 90.4439 21.7594 89.6962 22.6882 89.2022C24.0562 88.4734 25.8143 87.8598 27.0695 86.9891C28.4308 86.0447 28.8723 84.5604 29.3719 83.0527C28.7985 82.5821 27.948 81.9138 27.8228 81.1347C27.6294 79.9276 28.8913 78.2355 29.2613 76.9993C30.2783 73.606 30.3163 70.2429 31.8196 66.8161C31.9862 66.4361 32.6858 65.3642 32.7171 65.1318C32.773 64.7216 32.0901 64.5785 32.1929 63.9593C33.5431 60.9896 34.606 57.8948 35.5247 54.7641C35.4521 54.5998 35.309 54.7731 35.2263 54.801C33.6705 55.3274 30.313 56.7111 29.2087 57.8366C27.8396 59.2315 25.7305 63.1289 25.08 64.9965C24.7391 65.9767 24.5625 66.9983 24.1456 67.974C23.4717 69.5544 21.7236 72.3799 19.9912 70.2452C19.3899 71.3461 18.2398 72.6448 16.8606 72.0882C16.5186 71.9507 15.6267 71.1102 15.3472 70.8073C13.3041 68.591 16.6203 64.8602 17.8005 62.9702C19.7498 59.8496 20.6652 56.2317 22.7128 53.129C25.3896 49.0729 30.2761 46.2832 34.6664 44.4055C36.0724 43.8041 37.2706 43.4431 38.5447 42.6965C39.0186 42.4193 39.9418 42.4137 40.2458 41.7141C40.5152 41.0938 40.01 40.8445 39.9105 40.3192C39.7563 39.5055 39.9731 38.5879 40.2771 37.8335C40.4168 37.4859 40.9869 36.6543 41.0014 36.4263C41.0193 36.1413 40.7253 35.768 40.6761 35.4193C40.4895 34.077 41.3043 32.7234 41.9715 31.627C41.1009 30.3595 41.3278 29.234 42.0285 27.961C42.232 27.591 43.0076 26.6857 43.0769 26.4354C43.1462 26.185 42.8791 25.6575 42.897 25.2618C42.9618 23.8613 44.0951 22.6263 45.0016 21.6651C44.816 21.0448 44.4405 20.515 44.2382 19.8958C43.5039 17.6493 43.6615 14.8629 44.6685 12.7181C45.1681 11.6529 47.2146 8.89334 48.567 10.1474C49.1482 10.6861 48.9671 13.0042 49.0621 13.8436C49.2108 15.1568 49.7506 16.4388 50.0557 17.713C50.9923 17.2257 50.6347 16.868 50.7543 16.0096C50.9633 14.503 53.1741 10.7811 54.6684 10.3117C56.6881 9.67796 56.27 13.7206 56.0398 14.8115C55.899 15.4765 55.5827 16.0935 55.3088 16.7059C56.5048 16.1572 58.0416 15.9683 58.8854 17.2089C59.1112 17.5409 59.0765 17.9645 59.2163 18.1075C59.356 18.2506 59.964 18.3288 60.2244 18.4406C61.7355 19.0888 62.196 19.6946 61.066 21.1789L60.3384 21.7344C62.8778 22.7168 67.2714 24.4526 68.5165 27.0255C69.3134 28.673 69.0675 30.6759 67.5463 31.7947C66.8321 32.3188 66.4935 32.0126 65.7838 32.1557C65.378 32.2373 64.6806 32.7279 64.162 32.881C61.9121 33.5461 59.1715 33.4712 56.8736 33.137C56.9999 37.1238 57.3732 41.0848 57.0088 45.0727C58.9458 46.7112 60.6759 48.6135 62.6319 50.2331C63.4567 50.916 66.3091 53.1614 67.2211 53.253C67.6033 53.291 68.6204 52.8797 69.0183 52.7143C73.9428 50.6779 77.8424 46.8241 83.6097 47.8088C85.113 48.0647 86.9985 48.9567 87.0499 50.6835C92.5914 50.9227 97.2186 55.1319 98.286 60.5157C100.066 69.4929 91.0233 76.2125 82.7144 73.1813C78.9478 71.8077 76.2363 68.3864 75.5869 64.4377C75.0739 61.3171 75.9681 58.6939 77.3249 55.9377L70.7653 60.6096C64.9991 63.9224 63.2734 61.0086 58.2886 59.0482C58.1064 58.9767 57.7275 58.7408 57.5967 58.9532C57.2357 60.5627 56.9384 62.1945 56.5048 63.7861C56.3371 64.4019 55.1971 68.1774 54.9668 68.3954C54.7366 68.6133 54.2392 68.6368 54.0783 68.9017C57.2592 70.2798 59.974 72.5051 62.8979 74.3325C63.4534 74.8254 62.9773 75.1194 63.0689 75.2781C66.7226 77.4285 67.8604 80.9905 68.4774 84.9606C68.6528 86.0916 68.8294 87.3848 68.9412 88.5204C69.0642 89.761 69.0027 93.9534 69.7851 94.7179C69.9907 94.9191 70.9106 95.4612 71.2146 95.6355C72.0506 96.1128 73.0833 96.571 74.0367 96.7253C76.347 97.0986 79.3636 96.1866 80.9507 98.4174C81.0647 98.5784 81.9466 100.202 81.9689 100.307C82.0203 100.547 81.8616 101.103 81.7711 101.348C80.9786 103.478 76.4476 105.159 74.4491 105.985L69.2787 107.577H86.2116C86.2697 107.577 87.127 107.711 87.1672 107.738C87.374 107.875 87.241 108.272 87.1404 108.451C86.7928 108.487 86.4564 108.567 86.1043 108.587C75.768 109.185 64.8605 108.125 54.465 108.587L53.6334 108.468L53.743 107.688L54.0649 107.783L54.0772 107.577H64.5834L64.5878 107.575ZM47.8204 10.8951C46.592 11.1555 45.7459 12.8488 45.3425 13.9486C44.6663 15.7906 44.6249 18.5132 45.5258 20.2881C45.7012 20.6346 46.706 21.769 46.7049 21.902C46.6982 22.4877 46.0287 22.4464 45.7292 22.6073C45.0731 22.9605 44.151 24.1464 43.9621 24.8628C43.6279 26.1369 44.5713 25.3758 44.6976 26.3694C43.8984 27.3955 42.945 28.0482 42.5371 29.3615C42.242 30.3093 42.251 30.6446 43.3239 30.8178C43.7397 31.5689 42.8556 32.1378 42.4767 32.7659C42.0576 33.46 41.4954 34.6906 41.7245 35.4942C41.8441 35.9133 42.4745 35.6853 42.5281 36.2106C42.0073 37.2802 40.7354 38.5812 40.8438 39.8598C40.9321 40.9004 41.7692 40.4556 41.8933 40.631C41.9861 41.0792 41.6128 41.3721 41.4518 41.7409C43.5374 42.3981 45.3447 43.9193 46.7004 45.6036C48.2518 47.5305 50.3363 52.4427 53.5597 50.3303C56.8557 48.1698 56.0521 38.5332 55.871 35.0918C55.8196 34.1094 55.7984 33.1012 55.8118 32.121C55.9571 31.8472 58.4853 32.3255 58.9447 32.3535C60.7631 32.463 62.5671 32.2339 64.3632 32.0182L62.3469 30.8502C61.9032 30.4635 61.788 29.5928 62.6039 29.8074C63.184 30.1986 65.4563 31.5789 66.0453 31.1844C66.3493 30.981 66.5047 29.1066 66.3627 28.6774C65.8318 28.5366 64.4995 28.4807 64.3006 27.8895C63.9038 26.707 65.2048 27.448 65.6776 27.5184C66.3571 27.619 66.8098 27.5251 67.3809 27.1574C64.9969 24.4615 61.4337 23.3606 58.2036 22.025C58.0583 21.8786 58.1086 21.5612 58.2439 21.427C58.5445 21.1308 60.7575 20.7341 60.6827 19.8947C60.6391 19.413 59.0374 19.1805 58.6127 19.1593C58.122 19.1347 56.7216 19.3716 56.4735 19.1749C55.5078 18.4138 57.7364 17.9276 58.2159 18.1578C58.2159 17.6537 57.4794 17.2625 57.0424 17.2625C56.2253 17.2625 54.8629 18.4886 54.4717 18.4875C54.2336 18.4875 54.0336 18.2271 53.8056 18.1533C53.0534 17.9119 51.1119 17.6034 50.6693 18.4931C50.4805 18.8731 51.0974 19.7237 50.0926 19.8165C49.7864 19.8444 49.5204 19.2151 49.4142 18.9692C48.8173 17.6012 48.0517 14.8774 47.9366 13.4054C47.8707 12.5728 48.0596 11.701 47.8215 10.8918L47.8204 10.8951ZM54.8104 11.3433C53.6837 12.4554 51.7177 15.0987 51.6652 16.6981C51.6529 17.0737 51.986 16.7887 52.2352 16.8065C52.8913 16.8546 53.3004 17.1295 53.914 16.7071C54.9992 15.9593 55.3893 13.0757 55.1725 11.872C55.1434 11.7144 55.0417 11.2908 54.8115 11.3433H54.8104ZM67.8269 28.2192L66.8221 28.5556C67.6961 29.3089 67.2043 30.1528 67.1585 31.1252C67.9297 30.4143 68.1085 29.1972 67.8269 28.2192ZM56.6534 46.1021C56.3829 48.3207 54.9847 51.5497 52.4599 51.8012C48.9716 52.1488 47.8159 48.7387 46.031 46.4966C44.6819 44.8011 42.8892 43.3191 40.8885 42.4618L39.8871 43.4185C43.4245 44.4982 44.2907 48.21 44.0202 51.5217C43.7978 54.2478 41.8251 56.9794 38.9348 57.166C37.683 57.2465 37.2482 56.5111 36.5653 55.6326C36.4938 55.5409 36.5687 55.4292 36.3105 55.4906L33.4548 63.9817C36.1059 66.2137 39.3807 67.5404 42.7718 68.1964C45.7404 68.7709 49.4578 68.9844 52.4051 68.2892C53.2858 68.0813 53.8838 68.0735 54.3096 67.176C54.7355 66.2785 55.1937 64.6601 55.4787 63.6508C56.8009 58.9756 57.5442 53.5883 57.3263 48.7231C57.3084 48.3296 57.2558 46.9828 57.1865 46.7392C57.1463 46.6006 56.7998 46.2038 56.6523 46.101L56.6534 46.1021ZM37.3287 53.9382C37.0537 54.8312 37.8395 56.0148 38.737 56.1389C39.9966 56.3121 41.8128 54.7306 42.365 53.6655C43.4312 51.6078 43.1988 47.2567 41.5066 45.5444C41.0193 45.0504 39.1695 44.0668 38.5 44.0959C38.1345 44.1115 36.8593 44.6502 36.4245 44.8179C32.0812 46.4978 26.3262 49.625 23.703 53.5559C21.6487 56.634 20.806 60.1368 18.9227 63.1937C17.6687 65.229 15.3126 67.4442 15.9709 70.0194L17.0897 68.0668C17.5256 67.6432 17.9548 67.0128 18.6522 67.1134C18.8288 67.8634 18.2409 68.0388 17.8732 68.5139C17.6038 68.8603 16.9243 70.1569 16.8818 70.5525C16.8293 71.0387 17.6754 71.2309 18.0878 70.9649C19.0345 70.3547 19.8213 68.7206 20.5545 67.955C20.7456 67.755 20.8898 67.5325 21.1771 67.7751C21.6834 68.4647 20.7322 69.1029 21.0116 69.8964C21.6633 70.1602 22.1338 69.3253 22.4557 68.8503C23.4214 67.4252 23.5823 66.0427 24.1277 64.4869C24.9179 62.2336 27.4976 57.622 29.4591 56.2942C31.5201 54.8994 34.6842 54.2355 36.98 53.1971C37.6327 52.9021 38.9482 51.6927 39.326 52.6372C39.3472 53.1938 37.8249 53.8152 37.3309 53.9382H37.3287ZM81.1295 49.4551H82.8619C83.679 49.4551 84.7273 50.1895 85.3734 50.6321C85.5243 50.736 85.5891 50.8522 85.8227 50.7964C85.8607 49.891 85.0045 49.3434 84.2333 49.0897C78.7533 47.2891 73.7975 52.085 69.0228 53.8353C66.6265 54.7138 65.7223 53.8868 63.8178 52.5176C61.807 51.0724 60.0802 49.2864 58.2182 47.668C58.4372 51.0478 58.4596 54.5093 57.7689 57.8378C59.8757 58.3731 61.797 59.7959 63.8066 60.575C69.4006 62.7421 75.1935 55.314 79.7827 52.9725C80.0286 52.8473 80.2969 52.7456 80.5696 52.6964C80.1773 51.9811 78.6226 52.863 78.5533 52.0772L78.5723 51.8816C79.4519 50.755 81.1161 51.6827 82.1913 52.0336L84.3697 51.2434C84.3116 51.087 83.9651 50.9215 83.8153 50.8489C83.5795 50.736 83.3369 50.6477 83.0866 50.5717C82.6272 50.4331 81.3061 50.3314 81.1284 50.1828C80.8892 49.9827 81.0926 49.701 81.1284 49.4551H81.1295ZM93.8655 61.1863C94.0689 60.9751 93.4419 56.7234 93.2977 56.1199C92.8071 54.0622 92.4807 53.3726 90.4812 52.5657C89.1958 52.0459 87.9351 51.8302 86.5436 51.9096C86.3849 51.9185 84.9509 52.0582 85.1521 52.2494C89.188 53.69 91.6447 57.6355 92.5265 61.6994C92.9904 61.5228 93.2173 61.1137 93.8644 61.1863H93.8655ZM91.6212 62.1788C91.0467 59.2237 89.6798 56.2138 87.2019 54.3919C86.4698 53.8543 84.6323 52.6808 83.7628 52.8149C83.4845 52.8574 83.2967 53.0697 83.0609 53.12C82.7613 53.1837 82.4562 53.12 82.1299 53.1949C79.9403 53.6967 78.8271 55.8516 77.8894 57.6723C81.0904 57.5304 85.7456 57.7998 87.9452 60.4688C88.5711 61.2277 89.197 62.3219 89.2897 63.3166L91.6223 62.1811L91.6212 62.1788ZM94.7653 60.5202C94.8535 60.6208 96.8821 59.6193 96.8866 59.2382C96.8911 58.885 96.1165 57.4857 95.8852 57.109C95.3464 56.2317 94.668 55.3599 93.8722 54.7083L94.7664 60.5202H94.7653ZM88.3833 63.7514C88.2715 62.0514 86.8655 60.3011 85.3398 59.6059C82.9636 58.524 79.9057 58.4324 77.3395 58.6302C76.5616 60.86 76.5537 63.4776 77.1171 65.761C81.0021 66.3165 84.8257 65.1943 88.3833 63.7514ZM97.223 60.2978L95.0134 61.5786C95.2693 62.3152 95.5275 63.0953 95.9343 63.7659C96.292 64.3572 96.9168 64.7774 97.0017 65.438C97.3192 65.1575 97.4186 64.3606 97.451 63.9336C97.5449 62.7086 97.3896 61.5015 97.223 60.2978ZM94.2053 61.9732L92.6607 62.8293C92.5522 63.4619 92.8339 64.0823 92.8697 64.707C93.0161 67.2285 92.5489 69.8305 91.3004 72.0312C91.4245 72.1474 93.4061 70.8118 93.6364 70.624C94.4925 69.9255 96.596 67.6219 96.7346 66.5579C96.7905 66.1265 96.0819 65.6515 95.836 65.3173C95.1028 64.3203 94.4154 63.2149 94.2053 61.9732ZM83.5884 72.5912C84.2803 72.5934 84.9766 72.8706 85.6584 72.9254C86.4832 72.9913 89.3881 72.9555 89.9626 72.4269C90.2599 72.153 90.8042 71.0666 90.9853 70.6553C91.9789 68.3932 92.1119 65.7219 91.6346 63.3155L89.5658 64.3192C89.3724 66.9659 88.0703 69.7053 85.8584 71.2298C85.1979 71.6847 84.4591 71.9966 83.7471 72.3587C83.6298 72.419 83.5359 72.2995 83.5873 72.5923L83.5884 72.5912ZM88.6169 64.7685C85.0481 66.0281 81.5677 67.1939 77.7128 66.673C77.5339 66.6484 77.5351 66.654 77.5507 66.8373C78.1666 68.1204 79.0126 69.2873 80.0644 70.2485C80.5528 70.6945 81.9857 71.8568 82.6071 71.7909C83.5527 71.6892 85.949 70.13 86.6051 69.408C87.6322 68.278 88.3352 66.2517 88.6169 64.7707V64.7685ZM59.1101 73.2607C59.1514 73.0762 59.0497 73.0349 58.9413 72.9287C57.5531 71.5752 54.6528 70.462 52.9919 69.3767C47.2861 70.3524 40.4515 69.5399 35.3414 66.6864C35.0441 66.5199 33.8516 65.628 33.6929 65.6537C31.1356 69.484 31.3021 74.3113 29.8447 78.5462C30.3901 79.6516 31.2809 80.3736 32.2958 81.0207C34.9894 82.7386 38.3089 83.5869 41.4876 83.6462L41.6988 83.4003C43.1116 80.4786 43.9364 76.6048 46.4277 74.3828C46.8793 73.9793 47.712 73.2607 48.3088 73.4808C48.4161 73.6038 48.491 74.024 48.4396 74.1537C48.3971 74.261 46.9396 75.2915 46.6468 75.6078C46.373 75.9029 45.0016 77.861 45.0206 78.117L50.9499 82.2021C52.3962 78.3506 55.4698 75.1059 59.1101 73.2595V73.2607ZM61.3454 74.4923L59.7527 73.6127C56.2522 75.7967 52.8779 78.6848 51.6305 82.7509L53.5217 83.6551C53.5049 82.1764 54.4683 80.7536 55.3647 79.6303C57.0211 77.5537 59.1917 76.0012 61.3454 74.4923ZM61.7981 93.7098C63.934 93.7824 65.8754 92.6737 67.9096 92.1763L68.1577 91.8812C67.6525 87.8766 67.8079 83.2661 65.8754 79.6303C64.8974 77.7906 63.3126 76.7869 61.7389 75.5161C59.1525 77.1681 56.5808 79.2995 55.1043 82.0199C55.1691 82.3631 56.346 82.6123 56.6925 82.7777C59.7404 84.2296 59.7986 86.1788 60.6692 89.1954C61.0984 90.6808 61.4483 92.2043 61.7981 93.7098ZM41.2283 84.2151H38.2664C37.8931 84.2151 35.9551 83.6014 35.47 83.4349C33.0681 82.6089 30.8618 81.4298 29.2702 79.409C29.1484 79.8986 28.7114 80.4574 28.8667 80.9771C29.0221 81.4969 31.1725 83.0135 31.7369 83.3679C34.2953 84.9717 37.2985 85.677 40.2749 86.0101C40.6426 85.981 41.3568 84.3369 41.2283 84.2151ZM38.2105 86.7868C35.3973 86.3856 32.7015 85.316 30.3298 83.7702C29.9531 84.5269 29.7251 85.3473 29.287 86.0782C28.0273 88.1761 25.9887 88.6992 23.9545 89.799C23.446 92.2143 24.8308 94.4061 26.6693 95.8222C31.1367 93.8506 36.7195 92.0031 38.2094 86.7857L38.2105 86.7868ZM22.8983 90.3623L19.8794 92.0936C19.3161 93.8215 20.9032 95.6668 22.2824 96.5107C23.4851 97.2472 24.6206 97.729 25.5774 96.3497C24.7212 95.4042 23.7779 94.472 23.2917 93.266C23.2191 93.0861 22.8983 92.1964 22.8983 92.0947V90.3623ZM21.613 107.575H27.369C28.0095 105.954 26.7834 105.004 25.688 104.051C24.4262 103.938 23.5018 104.271 22.2512 103.807C21.7828 103.634 21.1871 103.352 21.3939 102.76C21.6767 101.949 22.022 102.572 22.3171 102.731C23.1084 103.156 23.8975 103.231 24.7972 103.215L24.4619 102.097C23.5544 102.574 20.1354 101.416 21.8197 100.319C22.4993 100.945 23.2895 101.328 24.2395 101.202L24.1289 100.197C23.4392 100.333 20.8608 99.7732 20.8898 98.9092C21.0642 98.2084 21.7203 98.841 22.1785 98.9618C22.7966 99.1238 23.4325 99.1886 24.0596 99.2948L24.3524 98.2967C23.9009 98.09 22.0153 98.47 21.8298 98.1917C21.7247 98.033 21.8454 97.7122 21.6778 97.4495C21.5314 97.2204 20.7009 96.7186 20.4405 96.4514C19.7196 95.7127 18.8523 94.3625 18.7562 93.3242C18.7293 93.0302 18.9752 92.5708 18.7047 92.5932C18.3069 92.6267 16.8103 93.218 16.4135 93.4337C14.604 94.4184 15.0343 96.3631 15.3271 98.0989C15.8994 101.492 17.596 107.03 21.6118 107.573L21.613 107.575ZM68.7154 94.9336L68.1097 93.0481C66.2163 93.7858 64.2704 94.4363 62.2508 94.7313L63.4925 98.9439C64.3688 99.3395 66.5807 98.8813 66.9897 97.9603C67.1049 97.701 67.0188 97.3635 67.0959 97.0606C67.2893 96.3017 68.0124 95.2902 68.7166 94.9325L68.7154 94.9336ZM69.3995 100.529C69.1167 100.266 69.6319 98.8679 69.7862 98.5225C69.9404 98.1771 70.8524 96.8896 70.8536 96.7879C70.8558 96.5185 69.4844 95.8814 69.2262 95.6523C68.5031 95.9485 68.2158 96.7499 68.0649 97.4506C68.1756 97.9067 69.4676 97.2048 69.3805 97.9972C68.9535 98.7069 68.0437 98.6846 67.4145 98.9439C66.9394 99.1395 66.4432 99.6078 65.8463 99.8347C65.1679 100.094 64.5543 100.167 63.8535 100.301C63.9105 101.935 64.1486 103.646 64.6448 105.225C64.817 105.774 65.1791 107.197 65.8743 107.189C68.664 106.569 71.504 105.909 74.1954 104.941C75.6395 104.422 80.0823 102.491 80.6657 101.129C80.7383 100.958 80.9798 100.06 80.6288 100.198C80.1605 100.382 79.0551 101.302 78.4817 101.627C75.6786 103.217 72.3323 104.317 69.1748 104.95C68.5813 105.07 65.682 105.689 65.3602 105.263L65.3948 104.69C70.4981 103.66 75.825 102.564 80.0711 99.4122L80.127 99.2468C79.2138 97.6708 77.1316 97.8374 75.54 97.8497C75.5825 98.4957 75.4808 99.1406 75.2595 99.7486C75.122 100.129 74.4491 101.496 74.0278 100.643C73.8355 100.255 74.818 98.4722 74.6459 97.8497C73.8311 97.5792 73.5259 98.2576 73.1739 98.8925C72.9537 99.2892 72.6553 100.301 72.4664 100.531C72.3513 100.672 72.1937 100.681 72.0361 100.629C71.219 100.366 72.4328 97.967 72.8553 97.5691C71.9422 96.9175 71.6639 97.3277 71.1352 98.0821C70.8737 98.4566 69.9382 100.439 69.8163 100.506C69.737 100.55 69.4274 100.553 69.3972 100.527L69.3995 100.529Z" fill="black"/>
<path d="M56.6535 46.1021C56.8 46.2049 57.1476 46.6017 57.1878 46.7403C57.2582 46.9839 57.3107 48.3307 57.3275 48.7241C57.5466 53.5894 56.8022 58.9766 55.48 63.6519C55.195 64.6612 54.7445 66.2617 54.3109 67.1771C53.8772 68.0925 53.2871 68.0824 52.4064 68.2903C49.4579 68.9855 45.7416 68.772 42.7731 68.1975C39.3831 67.5414 36.1083 66.2148 33.4561 63.9827L36.3117 55.4917C36.5699 55.4291 36.495 55.5409 36.5666 55.6337C37.2495 56.511 37.6842 57.2476 38.936 57.1671C41.8264 56.9816 43.7991 54.2489 44.0215 51.5228C44.292 48.2123 43.4258 44.5004 39.8883 43.4196L40.8898 42.4629C42.8904 43.3202 44.6832 44.8011 46.0322 46.4977C47.816 48.7409 48.9728 52.151 52.4611 51.8022C54.986 51.5508 56.3842 48.3218 56.6547 46.1032L56.6535 46.1021Z" fill="white"/>
<path d="M37.3287 53.9382C37.8227 53.8152 39.345 53.1938 39.3237 52.6372C38.9459 51.6927 37.6304 52.9021 36.9777 53.1971C34.6809 54.2355 31.5178 54.8982 29.4568 56.2942C27.4953 57.622 24.9146 62.2325 24.1255 64.4868C23.58 66.0427 23.4191 67.4263 22.4534 68.8503C22.1315 69.3253 21.661 70.1602 21.0094 69.8964C20.73 69.104 21.6811 68.4647 21.1748 67.7751C20.8876 67.5325 20.7434 67.7549 20.5522 67.955C19.819 68.7206 19.0322 70.3547 18.0855 70.9649C17.6731 71.2309 16.827 71.0387 16.8795 70.5525C16.922 70.1568 17.6016 68.8614 17.8709 68.5138C18.2386 68.0399 18.8277 67.8645 18.65 67.1134C17.9536 67.0128 17.5244 67.6421 17.0874 68.0668L15.9686 70.0194C15.3103 67.4442 17.6664 65.229 18.9204 63.1937C20.8037 60.1368 21.6453 56.634 23.7008 53.5559C26.324 49.625 32.0789 46.4977 36.4222 44.8179C36.857 44.6491 38.1334 44.1115 38.4977 44.0958C39.1672 44.0668 41.017 45.0515 41.5043 45.5444C43.1965 47.2578 43.429 51.6089 42.3627 53.6654C41.8106 54.7306 39.9943 56.311 38.7347 56.1389C37.8372 56.0159 37.0526 54.8323 37.3264 53.9382H37.3287Z" fill="white"/>
<path d="M81.1296 49.4551C81.0927 49.6999 80.8893 49.9827 81.1296 50.1828C81.3073 50.3314 82.6284 50.4331 83.0878 50.5717C83.3381 50.6477 83.5807 50.7349 83.8165 50.8489C83.9663 50.9204 84.3127 51.0858 84.3709 51.2434L82.1925 52.0336C81.1184 51.6827 79.4542 50.755 78.5734 51.8816L78.5544 52.0772C78.6237 52.863 80.1784 51.9811 80.5707 52.6964C80.298 52.7456 80.0298 52.8473 79.7839 52.9725C75.1947 55.3151 69.4017 62.7421 63.8077 60.575C61.7981 59.7971 59.8769 58.3731 57.77 57.8378C58.4596 54.5082 58.4384 51.0467 58.2193 47.668C60.0814 49.2875 61.8082 51.0724 63.8189 52.5176C65.7234 53.8868 66.6277 54.7138 69.024 53.8353C73.7987 52.085 78.7545 47.2891 84.2345 49.0897C85.0057 49.3434 85.8618 49.891 85.8238 50.7964C85.5902 50.8522 85.5254 50.736 85.3745 50.6321C84.7285 50.1895 83.6801 49.4551 82.8631 49.4551H81.1307H81.1296Z" fill="white"/>
<path d="M88.3834 63.7514C84.8258 65.1943 81.0022 66.3165 77.1171 65.761C76.5538 63.4775 76.5617 60.8599 77.3396 58.6302C79.9069 58.4323 82.9649 58.524 85.3399 59.6059C86.8656 60.3011 88.2716 62.0503 88.3834 63.7514Z" fill="white"/>
<path d="M91.6211 62.1789L89.2885 63.3145C89.1958 62.3208 88.5699 61.2255 87.944 60.4666C85.7444 57.7987 81.0892 57.5293 77.8882 57.6702C78.827 55.8506 79.9391 53.6957 82.1287 53.1927C82.4562 53.1178 82.7602 53.1816 83.0597 53.1178C83.2955 53.0676 83.4833 52.8563 83.7616 52.8127C84.63 52.6786 86.4686 53.8522 87.2007 54.3898C89.6797 56.2116 91.0467 59.2215 91.62 62.1767L91.6211 62.1789Z" fill="white"/>
<path d="M88.6168 64.7685C88.3363 66.2505 87.6322 68.2758 86.605 69.4057C85.9489 70.1278 83.5526 71.688 82.6071 71.7886C81.9856 71.8557 80.5528 70.6933 80.0643 70.2462C79.0126 69.285 78.1665 68.1182 77.5507 66.8351C77.535 66.6529 77.5339 66.6473 77.7127 66.6708C81.5676 67.1916 85.0481 66.0259 88.6168 64.7662V64.7685Z" fill="white"/>
<path d="M83.5885 72.5912C83.5371 72.2995 83.6298 72.418 83.7483 72.3576C84.4592 71.9966 85.1991 71.6848 85.8596 71.2288C88.0715 69.7042 89.3736 66.9648 89.567 64.3181L91.6358 63.3145C92.1119 65.7208 91.98 68.3921 90.9864 70.6543C90.8054 71.0656 90.261 72.152 89.9637 72.4258C89.3904 72.9545 86.4844 72.9902 85.6595 72.9243C84.9789 72.8695 84.2814 72.5923 83.5896 72.5901L83.5885 72.5912Z" fill="white"/>
<path d="M93.8657 61.1863C93.2174 61.1125 92.9916 61.5216 92.5278 61.6993C91.646 57.6354 89.1893 53.69 85.1533 52.2493C84.9522 52.0582 86.3861 51.9185 86.5448 51.9095C87.9364 51.8302 89.1971 52.0459 90.4824 52.5656C92.4809 53.3726 92.8083 54.0622 93.299 56.1198C93.4432 56.7234 94.0702 60.9751 93.8668 61.1863H93.8657Z" fill="white"/>
<path d="M94.2054 61.9731C94.4166 63.2149 95.1029 64.3203 95.8361 65.3172C96.082 65.6514 96.7906 66.1264 96.7347 66.5579C96.5961 67.6219 94.4926 69.9254 93.6365 70.624C93.4062 70.8118 91.4246 72.1474 91.3005 72.0312C92.549 69.8304 93.0162 67.2285 92.8698 64.707C92.834 64.0822 92.5523 63.463 92.6608 62.8293L94.2054 61.9731Z" fill="white"/>
<path d="M94.7652 60.5202L93.8711 54.7083C94.6669 55.3599 95.3453 56.2317 95.884 57.109C96.1154 57.4857 96.8899 58.885 96.8855 59.2382C96.881 59.6193 94.8524 60.6208 94.7641 60.5202H94.7652Z" fill="white"/>
<path d="M97.2231 60.2977C97.3896 61.5015 97.545 62.7086 97.4511 63.9335C97.4187 64.3616 97.3192 65.1574 97.0018 65.438C96.918 64.7774 96.2932 64.356 95.9344 63.7659C95.5276 63.0953 95.2705 62.3151 95.0134 61.5786L97.2231 60.2977Z" fill="white"/>
<path d="M47.8204 10.8951C48.0573 11.7043 47.8696 12.5761 47.9355 13.4088C48.0517 14.8808 48.8174 17.6035 49.4131 18.9726C49.5204 19.2185 49.7853 19.8478 50.0915 19.8198C51.0974 19.7271 50.4793 18.8765 50.6682 18.4965C51.1108 17.6068 53.0534 17.9153 53.8045 18.1567C54.0325 18.2294 54.2325 18.4898 54.4706 18.4909C54.8618 18.4909 56.2242 17.2659 57.0413 17.2659C57.4783 17.2659 58.2137 17.6582 58.2148 18.1612C57.7353 17.931 55.5067 18.416 56.4724 19.1783C56.7216 19.375 58.1209 19.138 58.6116 19.1626C59.0363 19.1839 60.638 19.4152 60.6816 19.8981C60.7564 20.7375 58.5434 21.1342 58.2428 21.4304C58.1075 21.5634 58.0572 21.882 58.2025 22.0284C61.4326 23.3629 64.9958 24.4649 67.3798 27.1608C66.8087 27.5285 66.3571 27.6224 65.6765 27.5218C65.2037 27.4514 63.9027 26.7103 64.2995 27.8929C64.4973 28.4841 65.8296 28.54 66.3616 28.6808C66.5036 29.11 66.3482 30.9844 66.0442 31.1878C65.4552 31.5812 63.1829 30.202 62.6028 29.8108C61.7869 29.5962 61.9021 30.4669 62.3458 30.8536L64.3621 32.0216C62.566 32.2373 60.762 32.4664 58.9436 32.3569C58.4842 32.3289 55.956 31.8506 55.8107 32.1244C55.7973 33.1057 55.8174 34.1139 55.8699 35.0952C56.051 38.5365 56.8557 48.1743 53.5586 50.3337C50.3341 52.4461 48.2496 47.5339 46.6994 45.607C45.3436 43.9238 43.5363 42.4026 41.4507 41.7443C41.6117 41.3755 41.985 41.0826 41.8922 40.6344C41.7681 40.4578 40.931 40.9027 40.8427 39.8632C40.7343 38.5835 42.0073 37.2825 42.527 36.214C42.4734 35.6887 41.843 35.9156 41.7234 35.4976C41.4943 34.6939 42.0565 33.4634 42.4756 32.7693C42.8545 32.14 43.7397 31.5723 43.3228 30.8212C42.251 30.6479 42.242 30.3126 42.536 29.3648C42.9439 28.0527 43.8973 27.4 44.6965 26.3728C44.5702 25.3781 43.6268 26.1392 43.961 24.8662C44.1488 24.1497 45.072 22.9639 45.7281 22.6107C46.0276 22.4497 46.696 22.4911 46.7038 21.9054C46.7049 21.7724 45.7013 20.638 45.5247 20.2915C44.6238 18.5166 44.6652 15.7939 45.3414 13.952C45.7449 12.8522 46.5909 11.1578 47.8193 10.8985L47.8204 10.8951ZM47.2526 13.7005C46.6714 13.4725 46.3383 13.9039 46.126 14.3957C45.48 15.8878 46.1942 18.0237 47.0615 19.3124C47.2828 19.641 48.5301 21.3365 48.8073 20.4279C48.9928 19.8187 47.9847 18.8754 47.6539 18.2741C47.2269 17.4995 46.7172 16.203 46.8279 15.32C46.9028 14.7243 47.4493 14.3555 47.2537 13.7005H47.2526ZM56.4958 23.4188C56.1348 23.525 56.4344 24.6158 56.26 24.9779C56.1192 25.2708 54.9121 25.6038 54.6081 25.5178C54.0012 25.3457 54.1386 24.3599 53.9766 24.2436C53.1786 23.6691 52.8455 25.4898 53.686 26.2096C54.3309 26.7618 56.2164 26.4957 56.82 25.9861C57.6113 25.3188 57.3386 23.1695 56.4947 23.4188H56.4958Z" fill="white"/>
<path d="M54.8104 11.3433C55.0407 11.2908 55.1424 11.7144 55.1714 11.872C55.3894 13.0758 54.9993 15.9583 53.9129 16.7071C53.3004 17.1296 52.8914 16.8546 52.2342 16.8066C51.986 16.7887 51.6519 17.0726 51.6641 16.6982C51.7167 15.0988 53.6816 12.4566 54.8093 11.3433H54.8104Z" fill="white"/>
<path d="M67.8268 28.2192C68.1085 29.1972 67.9296 30.4144 67.1584 31.1252C67.2043 30.1528 67.696 29.309 66.822 28.5557L67.8268 28.2192Z" fill="white"/>
<path d="M47.2525 13.7005C47.4481 14.3555 46.9016 14.7243 46.8267 15.32C46.716 16.203 47.2268 17.4984 47.6527 18.2741C47.9835 18.8754 48.9917 19.8176 48.8061 20.4278C48.5289 21.3365 47.2816 19.641 47.0603 19.3124C46.193 18.0237 45.4777 15.8867 46.1248 14.3957C46.3372 13.905 46.6702 13.4725 47.2514 13.7005H47.2525Z" fill="black"/>
<path d="M56.4959 23.4187C57.3398 23.1695 57.6125 25.3176 56.8212 25.986C56.2176 26.4957 54.3321 26.7617 53.6872 26.2096C52.8456 25.4898 53.1786 23.6691 53.9778 24.2435C54.1399 24.3609 54.0024 25.3467 54.6093 25.5177C54.9133 25.6038 56.1204 25.2707 56.2612 24.9779C56.4356 24.6146 56.136 23.5249 56.497 23.4187H56.4959Z" fill="black"/>
<path d="M81.1296 29.225L80.5305 29.329L80.336 29.0686C79.813 23.3371 78.113 18.0035 75.8541 12.7627L75.6898 12.5917C73.2656 11.9859 72.054 9.87685 75.2048 9.04977C79.0082 8.05056 85.8898 8.18021 89.9079 8.31992C92.1824 8.39928 97.0834 8.64069 98.9365 9.7975C99.6261 10.2278 100.156 10.6201 99.6831 11.4528C101.025 11.7613 102.457 11.7277 103.825 11.74L103.947 8.62058L104.11 8.44398C104.382 8.38027 104.566 8.4954 104.698 8.72899C105.027 9.30795 104.714 12.0642 104.707 12.9684C104.698 14.1307 104.733 15.263 104.707 16.4231C104.697 16.8512 104.803 19.1279 104.585 19.262C103.859 19.4833 103.865 18.7725 103.819 18.2136C103.664 16.3661 103.931 14.3275 103.816 12.4587C103.776 12.4028 103.673 12.5705 103.65 12.5705H100.297C99.6809 12.5705 99.0807 11.7702 98.4883 12.4933C98.1754 12.8756 97.2332 15.2507 96.9973 15.8654C95.8271 18.91 95.1464 22.4877 94.6703 25.7211C94.5429 26.5884 94.5787 27.5441 94.4132 28.3723C94.1327 29.7783 93.2341 28.4606 93.5336 27.5463C93.2129 27.8324 92.5601 28.8283 92.0851 28.6126C91.666 28.4225 90.2778 26.3727 89.9984 26.3247C88.9467 27.107 88.0916 28.2068 86.9482 28.8406C86.5738 28.8741 85.056 26.3258 84.8157 25.8698L84.5855 25.9402C84.144 26.4051 82.9771 28.4147 82.5043 28.5388C82.1612 28.6293 81.4895 27.6379 81.1844 27.4334C80.8424 27.4043 81.1296 27.5541 81.1296 27.5999V29.2206V29.225ZM98.7879 11.0057C98.8326 10.8056 98.7286 10.7855 98.6034 10.6894C97.0767 9.51584 89.3915 9.2856 87.202 9.26101C83.8657 9.22301 79.6777 9.37948 76.3917 9.90256C75.5971 10.0289 73.2768 10.5307 75.0963 11.284C77.1931 12.1525 81.0223 12.1346 83.3135 12.2318C86.9684 12.3883 90.4812 12.452 94.1495 12.0116C95.7198 11.8227 97.3125 11.5735 98.789 11.0057H98.7879ZM97.4478 12.5727L94.724 12.9214C94.5328 13.2534 94.0534 13.7776 94.1405 14.1363C94.2277 14.4951 95.399 16.0118 95.7176 16.147C95.8964 16.2231 95.8685 16.0845 95.9076 16.0073C96.4407 14.959 96.7593 13.5965 97.4478 12.5727ZM81.1296 13.2422L76.8824 12.7962L78.4237 16.5628L79.0608 17.2636C80.0365 16.185 81.2324 14.7723 81.1296 13.2422ZM93.5347 13.1315C93.4219 13.0354 90.973 13.3361 90.5785 13.3595C89.7793 13.4054 88.7466 13.2232 88.0011 13.4646C87.8525 13.5127 87.8245 13.3763 87.8346 13.6311C87.8424 13.8379 87.9251 14.1609 88.0145 14.3498C88.1486 14.6337 89.8553 17.0591 90.0878 17.3061C90.1649 17.3877 90.1862 17.5319 90.3494 17.4905L93.5359 13.1327L93.5347 13.1315ZM86.9359 13.4713L81.9109 13.354L81.9142 13.9664L84.7531 17.5978L87.1081 14.5789L86.9359 13.4713ZM93.6454 14.6952L93.3749 14.8137L90.7517 18.2304L92.6428 21.2884C92.7881 21.3141 92.7848 21.3186 92.8742 21.2191C93.1916 20.8648 93.7561 19.9606 94.0534 19.5157C94.2881 19.1637 95.5242 17.2156 95.5499 16.9797C95.5555 16.9261 95.5645 16.8769 95.541 16.8266C94.5831 16.5785 93.9706 15.567 93.6465 14.6941L93.6454 14.6952ZM81.5778 15.0305C81.2626 16.1873 80.4299 17.0054 79.7996 17.9767L82.3032 20.952C82.6072 20.5451 84.182 18.6954 84.1328 18.3534C84.1093 18.1935 82.5289 16.0073 82.2931 15.71C82.1791 15.5659 81.7231 14.9243 81.5778 15.0305ZM87.5015 15.254C86.9918 16.3873 85.9312 17.2647 85.2829 18.3478L87.3327 21.2873L89.7167 18.2338C89.7011 18.0616 87.9978 15.5949 87.772 15.3725C87.6803 15.282 87.6736 15.2115 87.5015 15.254ZM79.3391 18.6082L79.1189 18.6618L80.402 23.4131C80.6836 23.1527 81.722 21.9612 81.694 21.6863L79.3391 18.6082ZM90.0688 24.9779L92.1902 22.0171L90.2387 19.0564L87.8346 22.0138C88.5052 23.0521 89.235 24.0714 90.0699 24.9779H90.0688ZM84.8157 19.167L84.5855 19.2374L82.8218 21.6617L84.7621 24.4179L86.6856 22.0171L84.8168 19.1681L84.8157 19.167ZM93.9807 23.412L94.5395 20.2836C94.2769 20.6133 93.385 21.703 93.3302 22.0395C93.2933 22.2675 93.4587 22.5715 93.5482 22.7838C93.6197 22.9515 93.8119 23.3282 93.9796 23.412H93.9807ZM82.3568 22.4083C82.0506 22.3267 82.1433 22.5916 82.0092 22.7794C81.7343 23.1627 80.6881 24.3542 80.6769 24.6917C80.6736 24.7934 80.9284 26.138 80.9619 26.2073C81.0659 26.4174 82.2339 27.1842 82.4149 27.5463L84.1462 25.1477L82.3568 22.4072V22.4083ZM86.9427 27.7721C87.1058 27.8156 87.1282 27.7285 87.2221 27.6636C87.4322 27.5195 87.9419 27.0333 88.171 26.8243C88.5979 26.4353 88.9891 25.9927 89.3915 25.578L87.2735 22.7436L85.2784 25.1679L86.9427 27.7732V27.7721ZM92.6395 27.7709L93.6253 26.575L93.8622 24.6884L92.7524 22.8531L90.6254 25.5915C90.6254 25.7267 92.1466 27.43 92.369 27.6525C92.4607 27.7441 92.4685 27.8123 92.6395 27.7709Z" fill="black"/>
<path d="M98.7877 11.0057C97.3113 11.5735 95.7186 11.8228 94.1482 12.0116C90.4811 12.4531 86.9671 12.3883 83.3123 12.2318C81.0211 12.1335 77.1919 12.1525 75.0951 11.284C73.2766 10.5307 75.5969 10.0289 76.3905 9.90258C79.6754 9.37951 83.8633 9.22303 87.2007 9.26103C89.3903 9.28562 97.0754 9.51586 98.6022 10.6894C98.7274 10.7856 98.8313 10.8057 98.7866 11.0057H98.7877Z" fill="white"/>
<path d="M93.6453 14.6952C93.9683 15.5681 94.5808 16.5796 95.5398 16.8277C95.5643 16.8769 95.5554 16.9272 95.5487 16.9808C95.523 17.2156 94.2868 19.1648 94.0521 19.5169C93.7559 19.9617 93.1904 20.8659 92.873 21.2202C92.7836 21.3197 92.7869 21.3152 92.6416 21.2895L90.7505 18.2315L93.3737 14.8148L93.6442 14.6963L93.6453 14.6952Z" fill="white"/>
<path d="M87.5016 15.2541C87.6737 15.2127 87.6804 15.282 87.772 15.3725C87.9967 15.595 89.7012 18.0606 89.7168 18.2338L87.3328 21.2873L85.283 18.3478C85.9312 17.2659 86.9919 16.3874 87.5016 15.2541Z" fill="white"/>
<path d="M90.0689 24.9779C89.234 24.0714 88.5041 23.0532 87.8335 22.0138L90.2376 19.0564L92.1891 22.0171L90.0677 24.9779H90.0689Z" fill="white"/>
<path d="M93.5346 13.1317L90.3481 17.4895C90.1861 17.5297 90.1648 17.3867 90.0866 17.3051C89.8541 17.0592 88.1474 14.6327 88.0133 14.3488C87.9239 14.1599 87.8412 13.8369 87.8333 13.6301C87.8233 13.3753 87.8523 13.5117 87.9999 13.4636C88.7454 13.2233 89.7781 13.4055 90.5772 13.3585C90.9718 13.3362 93.4206 13.0344 93.5335 13.1305L93.5346 13.1317Z" fill="white"/>
<path d="M86.936 13.4714L87.1081 14.5779L84.7532 17.5978L81.9142 13.9665L81.9109 13.354L86.936 13.4714Z" fill="white"/>
<path d="M81.5778 15.0306C81.7231 14.9244 82.1791 15.566 82.2931 15.7101C82.5289 16.0063 84.1093 18.1936 84.1328 18.3535C84.182 18.6955 82.6072 20.5452 82.3032 20.9521L79.7996 17.9768C80.4299 17.0055 81.2626 16.1874 81.5778 15.0306Z" fill="white"/>
<path d="M81.1295 13.2422C81.2323 14.7723 80.0375 16.1851 79.0607 17.2636L78.4236 16.5629L76.8823 12.7963L81.1295 13.2422Z" fill="white"/>
<path d="M86.9425 27.7721L85.2783 25.1668L87.2734 22.7426L89.3914 25.577C88.989 25.9917 88.599 26.4343 88.1709 26.8232C87.9418 27.0322 87.4321 27.5173 87.222 27.6626C87.1281 27.7274 87.1046 27.8157 86.9425 27.771V27.7721Z" fill="white"/>
<path d="M84.8156 19.1671L86.6844 22.0161L84.7609 24.4169L82.8206 21.6618L84.5843 19.2375L84.8156 19.1671Z" fill="white"/>
<path d="M82.3567 22.4084L84.1461 25.1489L82.4148 27.5475C82.2337 27.1853 81.0657 26.4186 80.9618 26.2085C80.9272 26.1392 80.6734 24.7946 80.6768 24.6929C80.688 24.3554 81.7341 23.1639 82.0091 22.7805C82.1443 22.5928 82.0504 22.3279 82.3567 22.4095V22.4084Z" fill="white"/>
<path d="M92.6396 27.771C92.4685 27.8134 92.4607 27.7441 92.3691 27.6525C92.1467 27.4301 90.6255 25.7267 90.6255 25.5915L92.7524 22.8531L93.8623 24.6884L93.6253 26.575L92.6396 27.771Z" fill="white"/>
<path d="M97.4476 12.5728C96.7591 13.5966 96.4394 14.959 95.9074 16.0074C95.8683 16.0845 95.8962 16.2231 95.7174 16.1471C95.3989 16.0119 94.2275 14.4952 94.1404 14.1364C94.0532 13.7776 94.5327 13.2534 94.7238 12.9215L97.4476 12.5728Z" fill="white"/>
<path d="M79.3391 18.6082L81.694 21.6863C81.722 21.9612 80.6837 23.1526 80.402 23.4131L79.1189 18.6618L79.3391 18.6082Z" fill="white"/>
<path d="M93.9806 23.4121C93.813 23.3283 93.6207 22.9516 93.5492 22.7839C93.4587 22.5716 93.2944 22.2676 93.3312 22.0396C93.386 21.7031 94.2779 20.6134 94.5406 20.2837L93.9817 23.4121H93.9806Z" fill="white"/>
</svg>
