<svg width="244" height="44" viewBox="0 0 244 44" fill="none" xmlns="http://www.w3.org/2000/svg">
<g clip-path="url(#clip0_2013_3)">
<path d="M242 2H2V42H242V2Z" fill="black"/>
<path d="M226.075 18.2954C228.395 18.2954 230 19.6685 230 22.6658V28.3126H227.892V22.84C227.892 21.1382 227.137 20.1326 225.591 20.1326C224.024 20.1326 223.039 21.2929 223.039 23.1686V28.3126H220.949V14.7759H223.039V19.6685C223.715 18.8176 224.74 18.2954 226.075 18.2954Z" fill="white"/>
<path d="M214.524 28.4286C211.913 28.4286 210.116 27.191 210.039 25.0445H212.088C212.165 26.0694 213.055 26.8042 214.544 26.8042C215.801 26.8042 216.632 26.3014 216.632 25.5086C216.632 24.445 215.743 24.3677 214.253 24.1742C212.011 23.9036 210.251 23.4201 210.251 21.3702C210.251 19.4944 211.913 18.2954 214.253 18.2954C216.671 18.2954 218.373 19.417 218.508 21.4476H216.459C216.343 20.5386 215.511 19.9005 214.292 19.9005C213.093 19.9005 212.281 20.4033 212.281 21.1962C212.281 22.1244 213.229 22.2405 214.64 22.3952C216.845 22.666 218.683 23.13 218.683 25.3346C218.683 27.2297 216.903 28.4286 214.524 28.4286Z" fill="white"/>
<path d="M208.22 26.4949H208.627V28.3126H207.543C206.248 28.3126 205.764 27.7518 205.745 26.8042C205.088 27.7712 204.063 28.4286 202.516 28.4286C200.369 28.4286 198.88 27.365 198.88 25.528C198.88 23.4781 200.331 22.3565 203.076 22.3565H205.532V21.757C205.532 20.6548 204.739 19.9778 203.385 19.9778C202.167 19.9778 201.355 20.558 201.2 21.4282H199.131C199.363 19.5138 200.988 18.2954 203.483 18.2954C206.093 18.2954 207.601 19.5525 207.601 21.8924V25.8568C207.601 26.3596 207.776 26.4949 208.22 26.4949ZM205.532 24.2904V23.9036H202.98C201.703 23.9036 200.988 24.387 200.988 25.3926C200.988 26.2241 201.684 26.8042 202.805 26.8042C204.507 26.8042 205.532 25.7793 205.532 24.2904Z" fill="white"/>
<path d="M190.725 28.3126H188.637V14.7759H190.725V23.2074L195.367 18.4114H197.861L193.956 22.4532L198.036 28.3126H195.541L192.485 23.9422L190.725 25.7793V28.3126Z" fill="white"/>
<path d="M186.182 26.4949H186.588V28.3126H185.504C184.21 28.3126 183.726 27.7518 183.707 26.8042C183.048 27.7712 182.024 28.4286 180.476 28.4286C178.331 28.4286 176.842 27.365 176.842 25.528C176.842 23.4781 178.292 22.3565 181.038 22.3565H183.494V21.757C183.494 20.6548 182.7 19.9778 181.347 19.9778C180.128 19.9778 179.316 20.558 179.162 21.4282H177.092C177.324 19.5138 178.95 18.2954 181.444 18.2954C184.055 18.2954 185.563 19.5525 185.563 21.8924V25.8568C185.563 26.3596 185.736 26.4949 186.182 26.4949ZM183.494 24.2904V23.9036H180.942C179.664 23.9036 178.95 24.387 178.95 25.3926C178.95 26.2241 179.646 26.8042 180.767 26.8042C182.468 26.8042 183.494 25.7793 183.494 24.2904Z" fill="white"/>
<path d="M164.188 18.2954C166.51 18.2954 168.114 19.6685 168.114 22.6658V28.3126H166.006V22.84C166.006 21.1382 165.252 20.1326 163.706 20.1326C162.139 20.1326 161.152 21.2929 161.152 23.1686V28.3126H159.064V14.7759H161.152V19.6685C161.83 18.8176 162.854 18.2954 164.188 18.2954Z" fill="white"/>
<path d="M156.755 28.3127H153.892C151.997 28.3127 151.185 27.4232 151.185 25.6247V20.2487H148.709V18.4115H151.185V15.6461H153.293V18.4115H156.657V20.2487H153.293V25.412C153.293 26.1855 153.564 26.4756 154.356 26.4756H156.755V28.3127Z" fill="white"/>
<path d="M144.864 16.8837C144.091 16.8837 143.472 16.3036 143.472 15.4914C143.472 14.6986 144.091 14.1184 144.864 14.1184C145.657 14.1184 146.276 14.6986 146.276 15.4914C146.276 16.3036 145.657 16.8837 144.864 16.8837ZM145.928 26.4756H148.751V28.3126H140.957V26.4756H143.82V20.2486H140.957V18.4114H145.928V26.4756Z" fill="white"/>
<path d="M131.817 28.3127H129.593L127.466 18.4115H129.496L130.966 25.9148L132.764 19.7072H134.35L136.091 25.9148L137.599 18.4115H139.552L137.387 28.3127H135.182L133.519 22.6272L131.817 28.3127Z" fill="white"/>
<path d="M113.14 32.1804H110.703V30.3432H112.347C113.159 30.3432 113.353 30.1499 113.662 29.3376L114.049 28.3707L110.143 18.4115H112.366L115.209 25.9341L118.013 18.4115H120.237L115.654 29.8597C115.035 31.4648 114.61 32.1804 113.14 32.1804Z" fill="white"/>
<path d="M104.364 28.4286C101.386 28.4286 99.3752 26.3982 99.3752 23.3621C99.3752 20.3453 101.386 18.2954 104.364 18.2954C107.323 18.2954 109.354 20.3453 109.354 23.3621C109.354 26.3982 107.323 28.4286 104.364 28.4286ZM104.364 26.6496C106.066 26.6496 107.207 25.2765 107.207 23.3621C107.207 21.4476 106.066 20.0746 104.364 20.0746C102.643 20.0746 101.502 21.4476 101.502 23.3621C101.502 25.2765 102.643 26.6496 104.364 26.6496Z" fill="white"/>
<path d="M95.4642 26.4756H98.3069V28.3126H90.5137V26.4756H93.3757V16.613H90.5137V14.7759H95.4642V26.4756Z" fill="white"/>
<path d="M84.7043 18.2954C87.3923 18.2954 89.3455 20.1906 89.3455 23.3621C89.3455 26.4176 87.3923 28.4286 84.7043 28.4286C83.1959 28.4286 82.1517 27.8098 81.5329 26.9204V32.1804H79.4443V18.4114H81.2621L81.5135 19.8812C82.1517 18.9917 83.1766 18.2954 84.7043 18.2954ZM84.3562 26.6689C86.0773 26.6689 87.2183 25.296 87.2183 23.3621C87.2183 21.4089 86.0773 20.0746 84.3562 20.0746C82.6351 20.0746 81.5135 21.4282 81.5135 23.3234C81.5135 25.2765 82.6351 26.6689 84.3562 26.6689Z" fill="white"/>
<path d="M77.0131 23.8456H69.6259V23.9422C69.6839 25.6246 70.7281 26.7269 72.3525 26.7269C73.5901 26.7269 74.5377 26.0888 74.8085 24.9865H76.8971C76.5489 26.9397 74.9052 28.4286 72.4685 28.4286C69.3744 28.4286 67.4407 26.4176 67.4407 23.3814C67.4407 20.326 69.3744 18.2954 72.2559 18.2954C75.1179 18.2954 77.0131 20.1133 77.0711 23.014C77.0711 23.2268 77.0517 23.5554 77.0131 23.8456ZM72.2752 19.9778C70.9795 19.9778 69.8579 20.8674 69.7032 22.2792H74.9052C74.7312 20.8094 73.7256 19.9778 72.2752 19.9778Z" fill="white"/>
<path d="M62.959 19.7265V14.7759H65.0476V28.3126H63.2298L62.9785 26.8236C62.3402 27.6938 61.3153 28.4286 59.7875 28.4286C57.0995 28.4286 55.1465 26.5336 55.1465 23.3621C55.1465 20.3066 57.1382 18.2954 59.807 18.2954C61.296 18.2954 62.3209 18.8949 62.959 19.7265ZM60.1357 26.6689C61.8567 26.6689 62.9785 25.3153 62.9785 23.4008C62.9785 21.4282 61.8567 20.0746 60.1357 20.0746C58.4146 20.0746 57.2737 21.4282 57.2737 23.3621C57.2737 25.296 58.4146 26.6689 60.1357 26.6689Z" fill="white"/>
<path d="M42 2H2V42H42V2Z" fill="#FF414C"/>
<path d="M25.0076 25.5028L29.1225 29.9459L29.7317 31.9199H22.3724L18.6907 25.5028H25.0076Z" fill="white"/>
<path d="M29.7297 31.9211L33.4053 25.5039L26.048 12.6667H18.6907L29.7297 31.9211Z" fill="white"/>
<path d="M15.0119 19.082H22.3694L15.015 31.9193L11.3333 25.5023L15.0119 19.082Z" fill="white"/>
</g>
<rect x="1" y="1" width="242" height="42" stroke="white" stroke-width="2"/>
<defs>
<clipPath id="clip0_2013_3">
<rect x="2" y="2" width="240" height="40" fill="white"/>
</clipPath>
</defs>
</svg>
