<svg width="180" height="30" viewBox="0 0 180 30" fill="none" xmlns="http://www.w3.org/2000/svg">
<rect width="180" height="30" fill="black"/>
<path d="M168.056 12.2216C169.796 12.2216 171 13.2514 171 15.4994V19.7345H169.419V15.63C169.419 14.3537 168.853 13.5995 167.693 13.5995C166.518 13.5995 165.779 14.4697 165.779 15.8765V19.7345H164.212V9.58195H165.779V13.2514C166.286 12.6132 167.055 12.2216 168.056 12.2216Z" fill="white"/>
<path d="M159.393 19.8215C157.435 19.8215 156.087 18.8933 156.029 17.2834H157.566C157.624 18.0521 158.291 18.6032 159.408 18.6032C160.351 18.6032 160.974 18.2261 160.974 17.6315C160.974 16.8338 160.307 16.7758 159.19 16.6307C157.508 16.4277 156.188 16.0651 156.188 14.5277C156.188 13.1208 157.435 12.2216 159.19 12.2216C161.003 12.2216 162.28 13.0628 162.381 14.5857H160.844C160.757 13.904 160.133 13.4254 159.219 13.4254C158.32 13.4254 157.711 13.8025 157.711 14.3972C157.711 15.0933 158.422 15.1804 159.48 15.2964C161.134 15.4995 162.512 15.8475 162.512 17.501C162.512 18.9223 161.177 19.8215 159.393 19.8215Z" fill="white"/>
<path d="M154.665 18.3712H154.97V19.7345H154.157C153.186 19.7345 152.823 19.3139 152.809 18.6032C152.316 19.3284 151.547 19.8215 150.387 19.8215C148.777 19.8215 147.66 19.0238 147.66 17.646C147.66 16.1086 148.748 15.2674 150.807 15.2674H152.649V14.8178C152.649 13.9911 152.054 13.4834 151.039 13.4834C150.125 13.4834 149.516 13.9185 149.4 14.5712H147.848C148.022 13.1354 149.241 12.2216 151.112 12.2216C153.07 12.2216 154.201 13.1644 154.201 14.9193V17.8926C154.201 18.2697 154.332 18.3712 154.665 18.3712ZM152.649 16.7178V16.4277H150.735C149.777 16.4277 149.241 16.7903 149.241 17.5445C149.241 18.1681 149.763 18.6032 150.604 18.6032C151.88 18.6032 152.649 17.8345 152.649 16.7178Z" fill="white"/>
<path d="M141.544 19.7345H139.978V9.58195H141.544V15.9056L145.025 12.3086H146.896L143.967 15.3399L147.027 19.7345H145.156L142.864 16.4567L141.544 17.8345V19.7345Z" fill="white"/>
<path d="M138.136 18.3712H138.441V19.7345H137.628C136.657 19.7345 136.294 19.3139 136.28 18.6032C135.786 19.3284 135.018 19.8215 133.857 19.8215C132.248 19.8215 131.131 19.0238 131.131 17.646C131.131 16.1086 132.219 15.2674 134.278 15.2674H136.12V14.8178C136.12 13.9911 135.525 13.4834 134.51 13.4834C133.596 13.4834 132.987 13.9185 132.871 14.5712H131.319C131.493 13.1354 132.712 12.2216 134.583 12.2216C136.541 12.2216 137.672 13.1644 137.672 14.9193V17.8926C137.672 18.2697 137.802 18.3712 138.136 18.3712ZM136.12 16.7178V16.4277H134.206C133.248 16.4277 132.712 16.7903 132.712 17.5445C132.712 18.1681 133.234 18.6032 134.075 18.6032C135.351 18.6032 136.12 17.8345 136.12 16.7178Z" fill="white"/>
<path d="M121.641 12.2216C123.382 12.2216 124.585 13.2514 124.585 15.4994V19.7345H123.004V15.63C123.004 14.3537 122.439 13.5995 121.279 13.5995C120.104 13.5995 119.364 14.4697 119.364 15.8765V19.7345H117.798V9.58195H119.364V13.2514C119.872 12.6132 120.64 12.2216 121.641 12.2216Z" fill="white"/>
<path d="M116.066 19.7345H113.919C112.498 19.7345 111.889 19.0674 111.889 17.7185V13.6865H110.032V12.3086H111.889V10.2346H113.47V12.3086H115.993V13.6865H113.47V17.559C113.47 18.1391 113.673 18.3567 114.267 18.3567H116.066V19.7345Z" fill="white"/>
<path d="M107.148 11.1628C106.568 11.1628 106.104 10.7277 106.104 10.1186C106.104 9.52393 106.568 9.08882 107.148 9.08882C107.743 9.08882 108.207 9.52393 108.207 10.1186C108.207 10.7277 107.743 11.1628 107.148 11.1628ZM107.946 18.3567H110.063V19.7345H104.218V18.3567H106.365V13.6865H104.218V12.3086H107.946V18.3567Z" fill="white"/>
<path d="M97.3625 19.7345H95.6946L94.0992 12.3086H95.6221L96.7244 17.9361L98.0732 13.2804H99.2625L100.568 17.9361L101.699 12.3086H103.164L101.54 19.7345H99.8862L98.6389 15.4704L97.3625 19.7345Z" fill="white"/>
<path d="M83.355 22.6353H81.5276V21.2574H82.7604C83.3695 21.2574 83.5146 21.1124 83.7466 20.5032L84.0367 19.778L81.107 12.3086H82.7749L84.9069 17.9506L87.01 12.3086H88.6779L85.2405 20.8948C84.7764 22.0986 84.4573 22.6353 83.355 22.6353Z" fill="white"/>
<path d="M76.7733 19.8215C74.5398 19.8215 73.0314 18.2987 73.0314 16.0216C73.0314 13.759 74.5398 12.2216 76.7733 12.2216C78.9924 12.2216 80.5153 13.759 80.5153 16.0216C80.5153 18.2987 78.9924 19.8215 76.7733 19.8215ZM76.7733 18.4872C78.0496 18.4872 78.9054 17.4574 78.9054 16.0216C78.9054 14.5857 78.0496 13.556 76.7733 13.556C75.4825 13.556 74.6268 14.5857 74.6268 16.0216C74.6268 17.4574 75.4825 18.4872 76.7733 18.4872Z" fill="white"/>
<path d="M70.0981 18.3567H72.2301V19.7345H66.3852V18.3567H68.5317V10.9598H66.3852V9.58195H70.0981V18.3567Z" fill="white"/>
<path d="M62.0283 12.2216C64.0443 12.2216 65.5092 13.643 65.5092 16.0216C65.5092 18.3132 64.0443 19.8215 62.0283 19.8215C60.897 19.8215 60.1138 19.3574 59.6497 18.6903V22.6353H58.0833V12.3086H59.4466L59.6352 13.4109C60.1138 12.7438 60.8825 12.2216 62.0283 12.2216ZM61.7672 18.5017C63.058 18.5017 63.9138 17.472 63.9138 16.0216C63.9138 14.5567 63.058 13.556 61.7672 13.556C60.4764 13.556 59.6352 14.5712 59.6352 15.9926C59.6352 17.4574 60.4764 18.5017 61.7672 18.5017Z" fill="white"/>
<path d="M56.2598 16.3842H50.7194V16.4567C50.7629 17.7185 51.5461 18.5452 52.7644 18.5452C53.6926 18.5452 54.4033 18.0666 54.6064 17.2399H56.1728C55.9117 18.7048 54.6789 19.8215 52.8514 19.8215C50.5308 19.8215 49.0805 18.3132 49.0805 16.0361C49.0805 13.7445 50.5308 12.2216 52.6919 12.2216C54.8384 12.2216 56.2598 13.585 56.3033 15.7605C56.3033 15.9201 56.2888 16.1666 56.2598 16.3842ZM52.7064 13.4834C51.7346 13.4834 50.8934 14.1506 50.7774 15.2094H54.6789C54.5484 14.1071 53.7942 13.4834 52.7064 13.4834Z" fill="white"/>
<path d="M45.7193 13.2949V9.58195H47.2857V19.7345H45.9224L45.7339 18.6177C45.2552 19.2704 44.4865 19.8215 43.3407 19.8215C41.3247 19.8215 39.8599 18.4002 39.8599 16.0216C39.8599 13.73 41.3537 12.2216 43.3553 12.2216C44.472 12.2216 45.2407 12.6712 45.7193 13.2949ZM43.6018 18.5017C44.8926 18.5017 45.7339 17.4865 45.7339 16.0506C45.7339 14.5712 44.8926 13.556 43.6018 13.556C42.311 13.556 41.4553 14.5712 41.4553 16.0216C41.4553 17.472 42.311 18.5017 43.6018 18.5017Z" fill="white"/>
<rect width="30" height="30" fill="#FF414C"/>
<path d="M17.2557 17.6271L20.3419 20.9594L20.7988 22.4399H15.2793L12.518 17.6271H17.2557Z" fill="white"/>
<path d="M20.7973 22.4408L23.554 17.6279L18.036 7.99999H12.518L20.7973 22.4408Z" fill="white"/>
<path d="M9.75901 12.8115H15.2771L9.7613 22.4395L7 17.6267L9.75901 12.8115Z" fill="white"/>
</svg>
