<svg width="405" height="61" viewBox="0 0 405 61" fill="none" xmlns="http://www.w3.org/2000/svg">
<path d="M29.2471 33.7188L36.4665 46.2858H21.8799L14.5825 33.7188H29.2471Z" fill="url(#paint0_linear_1725_9013)"/>
<path d="M36.4626 46.2874L43.7479 33.7203L29.1652 8.58008H14.5825L36.4626 46.2874Z" fill="#FF414C"/>
<path d="M7.2913 21.1445H21.874L7.29736 46.2848L0 33.7177L7.2913 21.1445Z" fill="#FF414C"/>
<path d="M48.6228 40.0472C48.6228 35.6371 52.1063 33.3057 59.1199 33.3057H66.2579V32.5572C66.2579 29.9764 64.2844 28.686 60.4219 28.686C56.9789 28.686 55.1327 29.6007 54.6294 31.4733H49.3402C49.8437 27.1862 54.0853 24.6914 60.7603 24.6914C67.8985 24.6914 71.5499 27.4787 71.5499 32.8899V40.0875C71.5499 41.2518 72.0531 41.7936 73.3119 41.7936H74.2783V46.2871H71.4658C68.778 46.2871 66.9321 45.1632 66.9321 42.9178V42.8347C65.0859 45.3324 61.8946 46.5397 57.9046 46.5397C52.0283 46.5397 48.6256 44.1682 48.6256 40.0472H48.6228ZM66.2579 37.5096V36.9274H58.9116C55.5117 36.9274 53.9986 37.8422 53.9986 39.7577C53.9986 41.6733 55.6362 42.6283 58.8275 42.6283C63.2373 42.6283 66.2579 40.5463 66.2579 37.5096Z" fill="white"/>
<path d="M76.0404 17.1602H81.3728V34.8016L92.6656 24.94H99.468L89.6854 33.428L100.055 46.2862H93.4209L85.7795 36.8404L81.37 40.6687V46.2862H76.0374V17.1602H76.0404Z" fill="white"/>
<path d="M99.7197 40.0472C99.7197 35.6371 103.203 33.3057 110.217 33.3057H117.355V32.5572C117.355 29.9764 115.382 28.686 111.519 28.686C108.076 28.686 106.23 29.6007 105.726 31.4733H100.437C100.941 27.1862 105.182 24.6914 111.858 24.6914C118.995 24.6914 122.647 27.4787 122.647 32.8899V40.0875C122.647 41.2518 123.15 41.7936 124.409 41.7936H125.375V46.2871H122.563C119.875 46.2871 118.029 45.1632 118.029 42.9178V42.8347C116.183 45.3324 112.992 46.5397 109.002 46.5397C103.125 46.5397 99.7225 44.1682 99.7225 40.0472H99.7197ZM117.355 37.5096V36.9274H110.009C106.609 36.9274 105.096 37.8422 105.096 39.7577C105.096 41.6733 106.733 42.6283 109.925 42.6283C114.334 42.6283 117.355 40.5463 117.355 37.5096Z" fill="white"/>
<path d="M126.047 39.298H131.168C131.376 41.5031 133.645 42.6274 137.843 42.6274C141.706 42.6274 143.636 41.7527 143.636 40.0063C143.636 38.4264 142.334 38.0077 137.464 37.7179C129.528 37.2591 126.547 35.5958 126.547 31.5182C126.547 27.4405 130.578 24.6934 137.085 24.6934C143.592 24.6934 148.002 27.148 148.337 31.3921H143.216C142.881 29.5195 140.907 28.6048 137.169 28.6048C133.431 28.6048 131.712 29.3962 131.712 31.0594C131.712 32.7226 133.014 33.0983 137.8 33.4309C145.988 34.013 148.8 35.5958 148.8 39.6306C148.8 43.6655 144.475 46.5388 137.8 46.5388C130.578 46.5388 126.255 43.8747 126.044 39.298H126.047Z" fill="white"/>
<path d="M151.364 17.1602H156.696V27.8133C158.374 25.8576 161.106 24.6933 164.925 24.6933C171.14 24.6933 175.254 27.7301 175.254 34.8475V46.2892H169.922V35.3035C169.922 31.2687 167.865 29.1037 163.666 29.1037C159.132 29.1037 156.696 31.3089 156.696 35.3035V46.2892H151.364V17.1602Z" fill="white"/>
<path d="M183.822 46V13.2764H186.863V27.3798L186.495 27.3337C186.741 25.8896 187.232 24.7066 187.97 23.7848C188.738 22.863 189.69 22.1717 190.827 21.7108C191.964 21.2499 193.208 21.0194 194.56 21.0194C196.343 21.0194 197.833 21.4189 199.031 22.2178C200.229 23.0167 201.136 24.1228 201.75 25.5362C202.365 26.9189 202.672 28.5013 202.672 30.2834V46H199.63V31.3896C199.63 28.9315 199.169 27.0418 198.248 25.7206C197.326 24.3993 195.866 23.7387 193.869 23.7387C191.718 23.7387 190.013 24.4301 188.753 25.8128C187.493 27.1647 186.863 29.039 186.863 31.4357V46H183.822ZM216.201 46.5531C213.988 46.5531 212.053 46.0307 210.393 44.986C208.765 43.9413 207.505 42.4665 206.614 40.5614C205.723 38.6257 205.277 36.3673 205.277 33.7863C205.277 31.1745 205.723 28.9161 206.614 27.0111C207.505 25.1061 208.765 23.6312 210.393 22.5865C212.053 21.5418 213.988 21.0194 216.201 21.0194C218.413 21.0194 220.333 21.5418 221.962 22.5865C223.59 23.6312 224.85 25.1061 225.741 27.0111C226.632 28.9161 227.078 31.1745 227.078 33.7863C227.078 36.3673 226.632 38.6257 225.741 40.5614C224.85 42.4665 223.59 43.9413 221.962 44.986C220.333 46.0307 218.413 46.5531 216.201 46.5531ZM216.201 43.6494C218.597 43.6494 220.472 42.7737 221.824 41.0223C223.206 39.2402 223.898 36.8282 223.898 33.7863C223.898 30.7443 223.206 28.3477 221.824 26.5963C220.472 24.8142 218.597 23.9231 216.201 23.9231C213.804 23.9231 211.914 24.8142 210.532 26.5963C209.149 28.3477 208.458 30.7443 208.458 33.7863C208.458 36.8282 209.149 39.2402 210.532 41.0223C211.914 42.7737 213.804 43.6494 216.201 43.6494ZM229.782 46V21.5725H232.547L232.685 28.1633L232.27 27.7946C232.455 26.4427 232.9 25.2597 233.607 24.2457C234.314 23.2317 235.205 22.4482 236.28 21.8951C237.356 21.3113 238.554 21.0194 239.875 21.0194C241.872 21.0194 243.532 21.6647 244.853 22.9552C246.174 24.215 246.973 25.9664 247.249 28.2094L246.604 28.1172C246.819 26.6424 247.265 25.3826 247.941 24.3379C248.648 23.2625 249.554 22.4482 250.66 21.8951C251.766 21.3113 253.011 21.0194 254.393 21.0194C256.022 21.0194 257.42 21.4035 258.588 22.1717C259.755 22.9091 260.646 23.9692 261.261 25.3519C261.875 26.7346 262.183 28.3938 262.183 30.3295V46H259.141V31.2513C259.141 28.8239 258.664 26.965 257.712 25.6745C256.79 24.384 255.453 23.7387 253.702 23.7387C252.473 23.7387 251.382 24.0614 250.43 24.7066C249.508 25.3519 248.77 26.2583 248.217 27.4259C247.695 28.5935 247.434 29.9608 247.434 31.5279V46H244.392V31.3896C244.392 29.0237 243.962 27.1647 243.101 25.8128C242.272 24.4301 240.951 23.7387 239.138 23.7387C237.909 23.7387 236.818 24.0614 235.865 24.7066C234.913 25.3519 234.16 26.2429 233.607 27.3798C233.085 28.5167 232.823 29.8533 232.823 31.3896V46H229.782ZM275.801 46.5531C273.465 46.5531 271.483 46.0154 269.855 44.9399C268.227 43.8338 266.967 42.3282 266.076 40.4232C265.215 38.4874 264.785 36.2751 264.785 33.7863C264.785 31.2974 265.215 29.1005 266.076 27.1954C266.936 25.2597 268.165 23.7541 269.763 22.6787C271.391 21.5725 273.342 21.0194 275.616 21.0194C277.798 21.0194 279.687 21.5418 281.285 22.5865C282.883 23.6312 284.097 25.1061 284.926 27.0111C285.787 28.9161 286.217 31.1438 286.217 33.6941V34.662H267.965C268.088 37.5502 268.841 39.7779 270.224 41.345C271.606 42.8813 273.465 43.6494 275.801 43.6494C277.583 43.6494 279.042 43.2193 280.179 42.3589C281.316 41.4986 282.099 40.3617 282.53 38.9483L285.802 39.1787C285.187 41.3296 284.005 43.0964 282.253 44.479C280.502 45.8617 278.351 46.5531 275.801 46.5531ZM267.965 31.9427H282.898C282.745 29.3309 282.023 27.3491 280.732 25.9971C279.442 24.6144 277.736 23.9231 275.616 23.9231C273.496 23.9231 271.76 24.6144 270.408 25.9971C269.056 27.3798 268.242 29.3617 267.965 31.9427ZM288.884 46V21.5725H291.65L291.788 27.979L291.419 27.7024C291.665 26.1968 292.172 24.9524 292.94 23.9692C293.739 22.9859 294.707 22.2485 295.844 21.7569C296.981 21.2653 298.21 21.0194 299.531 21.0194C301.405 21.0194 302.942 21.4342 304.14 22.2639C305.369 23.0935 306.275 24.215 306.859 25.6284C307.443 27.0111 307.735 28.5628 307.735 30.2834V46H304.693V31.3896C304.693 29.7918 304.493 28.4245 304.094 27.2876C303.725 26.1507 303.111 25.275 302.25 24.6605C301.39 24.046 300.268 23.7387 298.886 23.7387C296.796 23.7387 295.106 24.4147 293.816 25.7667C292.556 27.1186 291.926 28.9929 291.926 31.3896V46H288.884ZM321.263 46.5531C319.051 46.5531 317.115 46.0307 315.456 44.986C313.827 43.9413 312.568 42.4665 311.677 40.5614C310.786 38.6257 310.34 36.3673 310.34 33.7863C310.34 31.1745 310.786 28.9161 311.677 27.0111C312.568 25.1061 313.827 23.6312 315.456 22.5865C317.115 21.5418 319.051 21.0194 321.263 21.0194C323.476 21.0194 325.396 21.5418 327.024 22.5865C328.653 23.6312 329.913 25.1061 330.804 27.0111C331.695 28.9161 332.14 31.1745 332.14 33.7863C332.14 36.3673 331.695 38.6257 330.804 40.5614C329.913 42.4665 328.653 43.9413 327.024 44.986C325.396 46.0307 323.476 46.5531 321.263 46.5531ZM321.263 43.6494C323.66 43.6494 325.534 42.7737 326.886 41.0223C328.269 39.2402 328.96 36.8282 328.96 33.7863C328.96 30.7443 328.269 28.3477 326.886 26.5963C325.534 24.8142 323.66 23.9231 321.263 23.9231C318.867 23.9231 316.977 24.8142 315.594 26.5963C314.212 28.3477 313.52 30.7443 313.52 33.7863C313.52 36.8282 314.212 39.2402 315.594 41.0223C316.977 42.7737 318.867 43.6494 321.263 43.6494ZM343.463 46.5531C341.343 46.5531 339.515 46.0307 337.978 44.986C336.442 43.9413 335.259 42.4665 334.429 40.5614C333.6 38.6564 333.185 36.398 333.185 33.7863C333.185 31.1745 333.6 28.9161 334.429 27.0111C335.259 25.1061 336.442 23.6312 337.978 22.5865C339.515 21.5418 341.343 21.0194 343.463 21.0194C345.245 21.0194 346.828 21.465 348.21 22.356C349.624 23.2164 350.653 24.384 351.298 25.8588V13.2764H354.34V46H351.667L351.529 41.4371C350.853 43.0349 349.777 44.2947 348.302 45.2165C346.858 46.1075 345.245 46.5531 343.463 46.5531ZM343.97 43.6494C345.506 43.6494 346.812 43.25 347.888 42.4511C348.994 41.6215 349.839 40.4692 350.422 38.9944C351.006 37.4888 351.298 35.7527 351.298 33.7863C351.298 31.8198 351.006 30.0991 350.422 28.6242C349.839 27.1494 348.994 25.9971 347.888 25.1675C346.812 24.3379 345.506 23.9231 343.97 23.9231C341.665 23.9231 339.822 24.8142 338.439 26.5963C337.057 28.3477 336.365 30.7443 336.365 33.7863C336.365 36.7974 337.057 39.1941 338.439 40.9762C339.822 42.7584 341.665 43.6494 343.97 43.6494ZM368.036 46.5531C365.7 46.5531 363.718 46.0154 362.09 44.9399C360.462 43.8338 359.202 42.3282 358.311 40.4232C357.45 38.4874 357.02 36.2751 357.02 33.7863C357.02 31.2974 357.45 29.1005 358.311 27.1954C359.171 25.2597 360.4 23.7541 361.998 22.6787C363.626 21.5725 365.577 21.0194 367.851 21.0194C370.033 21.0194 371.922 21.5418 373.52 22.5865C375.118 23.6312 376.332 25.1061 377.161 27.0111C378.022 28.9161 378.452 31.1438 378.452 33.6941V34.662H360.2C360.323 37.5502 361.076 39.7779 362.459 41.345C363.841 42.8813 365.7 43.6494 368.036 43.6494C369.818 43.6494 371.277 43.2193 372.414 42.3589C373.551 41.4986 374.334 40.3617 374.765 38.9483L378.037 39.1787C377.422 41.3296 376.24 43.0964 374.488 44.479C372.737 45.8617 370.586 46.5531 368.036 46.5531ZM360.2 31.9427H375.133C374.98 29.3309 374.258 27.3491 372.967 25.9971C371.677 24.6144 369.971 23.9231 367.851 23.9231C365.731 23.9231 363.995 24.6144 362.643 25.9971C361.291 27.3798 360.477 29.3617 360.2 31.9427Z" fill="#A3A3A3"/>
<mask id="path-10-outside-1_1725_9013" maskUnits="userSpaceOnUse" x="196.622" y="40.3301" width="99" height="12" fill="black">
<rect fill="white" x="196.622" y="40.3301" width="99" height="12"/>
<path d="M290.523 42.3301C291.944 42.3302 293.097 43.4827 293.097 44.9043C293.097 46.0379 292.363 46.9974 291.345 47.3408C291.246 47.4257 290.976 47.7211 290.976 48.4219V49.4814C290.976 49.6393 290.848 49.7674 290.69 49.7676H201.019C200.861 49.7672 200.733 49.6392 200.733 49.4814V48.4219C200.733 47.6999 200.446 47.4085 200.355 47.334C199.347 46.9848 198.622 46.0305 198.622 44.9043C198.622 43.4826 199.776 42.3301 201.198 42.3301C202.619 42.3303 203.771 43.4828 203.771 44.9043C203.771 46.0476 203.025 47.0149 201.993 47.3506C201.875 47.4466 201.592 47.7448 201.592 48.4219V48.7871C201.592 48.8657 201.657 48.9294 201.736 48.9297H289.973C290.052 48.9297 290.116 48.8659 290.116 48.7871V48.4219C290.116 47.7235 289.816 47.4288 289.704 47.3428C288.684 47.0006 287.949 46.0396 287.948 44.9043C287.948 43.4827 289.101 42.3301 290.523 42.3301Z"/>
</mask>
<path d="M290.523 42.3301C291.944 42.3302 293.097 43.4827 293.097 44.9043C293.097 46.0379 292.363 46.9974 291.345 47.3408C291.246 47.4257 290.976 47.7211 290.976 48.4219V49.4814C290.976 49.6393 290.848 49.7674 290.69 49.7676H201.019C200.861 49.7672 200.733 49.6392 200.733 49.4814V48.4219C200.733 47.6999 200.446 47.4085 200.355 47.334C199.347 46.9848 198.622 46.0305 198.622 44.9043C198.622 43.4826 199.776 42.3301 201.198 42.3301C202.619 42.3303 203.771 43.4828 203.771 44.9043C203.771 46.0476 203.025 47.0149 201.993 47.3506C201.875 47.4466 201.592 47.7448 201.592 48.4219V48.7871C201.592 48.8657 201.657 48.9294 201.736 48.9297H289.973C290.052 48.9297 290.116 48.8659 290.116 48.7871V48.4219C290.116 47.7235 289.816 47.4288 289.704 47.3428C288.684 47.0006 287.949 46.0396 287.948 44.9043C287.948 43.4827 289.101 42.3301 290.523 42.3301Z" fill="#FF424C"/>
<path d="M290.523 42.3301L290.523 40.614H290.523L290.523 42.3301ZM293.097 44.9043L294.813 44.9043V44.9043L293.097 44.9043ZM291.345 47.3408L290.796 45.7148L290.481 45.8212L290.228 46.0379L291.345 47.3408ZM290.976 48.4219L289.26 48.4218V48.4219H290.976ZM290.69 49.7676V51.4837L290.691 51.4837L290.69 49.7676ZM201.019 49.7676L201.015 51.4837H201.019V49.7676ZM200.733 49.4814H199.017V49.4815L200.733 49.4814ZM200.733 48.4219H202.449H202.449H200.733ZM200.355 47.334L201.442 46.0064L201.206 45.8127L200.917 45.7125L200.355 47.334ZM198.622 44.9043H196.906V44.9043L198.622 44.9043ZM201.198 42.3301L201.198 40.614H201.197L201.198 42.3301ZM203.771 44.9043L205.487 44.9043V44.9043H203.771ZM201.993 47.3506L201.462 45.7188L201.161 45.8169L200.914 46.0164L201.993 47.3506ZM201.592 48.4219H203.308V48.4219L201.592 48.4219ZM201.592 48.7871H199.876L199.876 48.7922L201.592 48.7871ZM201.736 48.9297L201.73 50.6458H201.736V48.9297ZM290.116 48.7871L291.833 48.7913V48.7871H290.116ZM290.116 48.4219H291.833V48.4218L290.116 48.4219ZM289.704 47.3428L290.753 45.9846L290.524 45.8077L290.25 45.7157L289.704 47.3428ZM287.948 44.9043L286.232 44.9043V44.9043L287.948 44.9043ZM290.523 42.3301L290.523 44.0462C290.997 44.0462 291.381 44.4307 291.381 44.9043L293.097 44.9043L294.813 44.9043C294.813 42.5348 292.892 40.6142 290.523 40.614L290.523 42.3301ZM293.097 44.9043L291.381 44.9043C291.381 45.2757 291.141 45.5984 290.796 45.7148L291.345 47.3408L291.894 48.9668C293.584 48.3964 294.813 46.8002 294.813 44.9043L293.097 44.9043ZM291.345 47.3408L290.228 46.0379C289.756 46.4427 289.26 47.2108 289.26 48.4218L290.976 48.4219L292.692 48.4219C292.692 48.2978 292.714 48.2985 292.68 48.3732C292.645 48.4474 292.578 48.5444 292.462 48.6438L291.345 47.3408ZM290.976 48.4219H289.26V49.4814H290.976H292.692V48.4219H290.976ZM290.976 49.4814H289.26C289.26 48.6901 289.901 48.0521 290.688 48.0515L290.69 49.7676L290.691 51.4837C291.794 51.4828 292.692 50.5885 292.692 49.4814H290.976ZM290.69 49.7676V48.0515H201.019V49.7676V51.4837H290.69V49.7676ZM201.019 49.7676L201.022 48.0515C201.806 48.0531 202.449 48.6879 202.449 49.4814L200.733 49.4814L199.017 49.4815C199.017 50.5905 199.916 51.4814 201.015 51.4837L201.019 49.7676ZM200.733 49.4814H202.449V48.4219H200.733H199.017V49.4814H200.733ZM200.733 48.4219H202.449C202.449 47.168 201.917 46.3956 201.442 46.0064L200.355 47.334L199.267 48.6615C199.144 48.5606 199.07 48.4602 199.032 48.3803C198.993 48.2995 199.017 48.2948 199.017 48.4219H200.733ZM200.355 47.334L200.917 45.7125C200.575 45.594 200.338 45.2729 200.338 44.9043L198.622 44.9043L196.906 44.9043C196.906 46.7882 198.12 48.3756 199.793 48.9554L200.355 47.334ZM198.622 44.9043H200.338C200.338 44.4313 200.723 44.0462 201.198 44.0462L201.198 42.3301L201.197 40.614C198.829 40.614 196.906 42.534 196.906 44.9043H198.622ZM201.198 42.3301L201.197 44.0462C201.671 44.0463 202.055 44.43 202.055 44.9043H203.771H205.487C205.487 42.5355 203.567 40.6144 201.198 40.614L201.198 42.3301ZM203.771 44.9043L202.055 44.9043C202.055 45.2806 201.81 45.6056 201.462 45.7188L201.993 47.3506L202.525 48.9824C204.24 48.4242 205.487 46.8146 205.487 44.9043L203.771 44.9043ZM201.993 47.3506L200.914 46.0164C200.429 46.4091 199.876 47.1821 199.876 48.4219L201.592 48.4219L203.308 48.4219C203.308 48.3305 203.325 48.3517 203.283 48.4352C203.243 48.5155 203.174 48.6026 203.073 48.6848L201.993 47.3506ZM201.592 48.4219H199.876V48.7871H201.592H203.308V48.4219H201.592ZM201.592 48.7871L199.876 48.7922C199.879 49.8304 200.724 50.6424 201.73 50.6458L201.736 48.9297L201.741 47.2136C202.59 47.2164 203.306 47.9011 203.308 48.782L201.592 48.7871ZM201.736 48.9297V50.6458H289.973V48.9297V47.2136H201.736V48.9297ZM289.973 48.9297V50.6458C290.988 50.6458 291.83 49.8257 291.833 48.7913L290.116 48.7871L288.4 48.7829C288.403 47.9062 289.115 47.2136 289.973 47.2136V48.9297ZM290.116 48.7871H291.833V48.4219H290.116H288.4V48.7871H290.116ZM290.116 48.4219L291.833 48.4218C291.833 47.137 291.24 46.3605 290.753 45.9846L289.704 47.3428L288.655 48.701C288.548 48.618 288.473 48.5284 288.429 48.4431C288.383 48.3538 288.4 48.3283 288.4 48.4219L290.116 48.4219ZM289.704 47.3428L290.25 45.7157C289.905 45.6001 289.665 45.2772 289.665 44.9043L287.948 44.9043L286.232 44.9043C286.232 46.802 287.463 48.4012 289.159 48.9698L289.704 47.3428ZM287.948 44.9043L289.665 44.9043C289.665 44.4305 290.049 44.0462 290.523 44.0462L290.523 42.3301L290.523 40.614C288.153 40.6141 286.232 42.5348 286.232 44.9043L287.948 44.9043Z" fill="#1E1E1E" mask="url(#path-10-outside-1_1725_9013)"/>
<defs>
<linearGradient id="paint0_linear_1725_9013" x1="25.5199" y1="43.0985" x2="33.9407" y2="33.5537" gradientUnits="userSpaceOnUse">
<stop stop-color="#FF414C"/>
<stop offset="1" stop-color="#FF414C" stop-opacity="0"/>
</linearGradient>
</defs>
</svg>
