<svg width="174" height="20" viewBox="0 0 174 20" fill="none" xmlns="http://www.w3.org/2000/svg">
<path d="M13.7531 13.04L17.1479 19.0123H10.2888L6.85742 13.04H13.7531Z" fill="url(#paint0_linear_1_4320)"/>
<path d="M17.146 19.0134L20.5718 13.0411L13.7146 1.09375H6.85742L17.146 19.0134Z" fill="#FF414C"/>
<path d="M3.42857 7.06445H10.2858L3.43142 19.0119L0 13.0396L3.42857 7.06445Z" fill="#FF414C"/>
<path d="M23.8422 12.8572C23.8422 9.06754 26.3438 6.39246 29.9602 6.39246C33.304 6.39246 35.5828 8.25015 35.9048 11.1977H32.8829C32.5362 9.81061 31.5206 9.09231 30.084 9.09231C28.152 9.09231 26.864 10.5537 26.864 12.8572C26.864 15.1608 28.0529 16.5974 29.9849 16.5974C31.4958 16.5974 32.5609 15.8543 32.8829 14.5168H35.9295C35.558 17.3652 33.1802 19.322 29.9849 19.322C26.2695 19.322 23.8422 16.746 23.8422 12.8572ZM36.8412 12.8572C36.8412 9.04277 39.5905 6.41723 43.3802 6.41723C47.1699 6.41723 49.9193 9.04277 49.9193 12.8572C49.9193 16.6717 47.1699 19.2972 43.3802 19.2972C39.5905 19.2972 36.8412 16.6717 36.8412 12.8572ZM39.863 12.8572C39.863 15.0865 41.2996 16.5974 43.3802 16.5974C45.4609 16.5974 46.8975 15.0865 46.8975 12.8572C46.8975 10.628 45.4609 9.11708 43.3802 9.11708C41.2996 9.11708 39.863 10.628 39.863 12.8572ZM54.7172 19H51.6953V6.764H54.4943L54.742 8.34923C55.5098 7.11077 56.996 6.39246 58.6555 6.39246C61.7269 6.39246 63.3121 8.29969 63.3121 11.4702V19H60.2903V12.1885C60.2903 10.1326 59.2747 9.14184 57.7143 9.14184C55.8566 9.14184 54.7172 10.4298 54.7172 12.4114V19ZM64.5755 15.2846H67.4488C67.4735 16.3497 68.2662 17.0185 69.6532 17.0185C71.0651 17.0185 71.8329 16.4488 71.8329 15.5571C71.8329 14.9378 71.5109 14.492 70.4211 14.2443L68.2166 13.7242C66.0122 13.2288 64.9471 12.1885 64.9471 10.2317C64.9471 7.82908 66.9782 6.39246 69.8018 6.39246C72.5512 6.39246 74.4089 7.97769 74.4337 10.3555H71.5605C71.5357 9.31523 70.8422 8.64646 69.678 8.64646C68.4891 8.64646 67.7955 9.19138 67.7955 10.1078C67.7955 10.8014 68.3405 11.2472 69.3808 11.4949L71.5852 12.0151C73.6411 12.4857 74.6814 13.4269 74.6814 15.3094C74.6814 17.7863 72.576 19.322 69.5542 19.322C66.5075 19.322 64.5755 17.6872 64.5755 15.2846ZM75.6447 12.8572C75.6447 9.04277 78.3941 6.41723 82.1838 6.41723C85.9734 6.41723 88.7228 9.04277 88.7228 12.8572C88.7228 16.6717 85.9734 19.2972 82.1838 19.2972C78.3941 19.2972 75.6447 16.6717 75.6447 12.8572ZM78.6665 12.8572C78.6665 15.0865 80.1031 16.5974 82.1838 16.5974C84.2644 16.5974 85.701 15.0865 85.701 12.8572C85.701 10.628 84.2644 9.11708 82.1838 9.11708C80.1031 9.11708 78.6665 10.628 78.6665 12.8572ZM93.5455 19H90.5484V0.571691H93.5455V19ZM101.57 19.322C97.9291 19.322 95.3778 16.6717 95.3778 12.882C95.3778 9.04277 97.8795 6.39246 101.471 6.39246C105.137 6.39246 107.465 8.84461 107.465 12.6591V13.5755L98.2511 13.6003C98.474 15.7552 99.6134 16.8451 101.62 16.8451C103.279 16.8451 104.369 16.2011 104.716 15.0369H107.515C106.995 17.712 104.765 19.322 101.57 19.322ZM101.496 8.86938C99.7124 8.86938 98.6226 9.83538 98.3254 11.6683H104.468C104.468 9.984 103.304 8.86938 101.496 8.86938Z" fill="black"/>
<rect x="111" y="1" width="63" height="18" rx="8.63437" fill="#F3F4F6"/>
<path d="M122.339 14V6.36364H125.061C125.655 6.36364 126.147 6.47177 126.537 6.68803C126.928 6.9043 127.22 7.20011 127.414 7.57546C127.608 7.94833 127.705 8.36843 127.705 8.83576C127.705 9.30558 127.606 9.72816 127.41 10.1035C127.216 10.4764 126.923 10.7722 126.53 10.9909C126.14 11.2072 125.649 11.3153 125.057 11.3153H123.185V10.3384H124.953C125.328 10.3384 125.633 10.2738 125.866 10.1445C126.1 10.0128 126.271 9.83381 126.381 9.6076C126.49 9.38139 126.545 9.12411 126.545 8.83576C126.545 8.54741 126.49 8.29137 126.381 8.06765C126.271 7.84393 126.099 7.66868 125.863 7.5419C125.629 7.41513 125.321 7.35174 124.938 7.35174H123.491V14H122.339ZM128.966 14V8.27273H130.043V9.18253H130.103C130.207 8.87429 130.391 8.63192 130.655 8.45543C130.921 8.27646 131.222 8.18697 131.557 8.18697C131.627 8.18697 131.709 8.18945 131.803 8.19442C131.9 8.1994 131.976 8.20561 132.031 8.21307V9.27947C131.986 9.26705 131.906 9.25337 131.792 9.23846C131.678 9.22106 131.563 9.21236 131.449 9.21236C131.186 9.21236 130.951 9.26829 130.744 9.38015C130.541 9.48952 130.379 9.6424 130.26 9.83878C130.14 10.0327 130.081 10.2539 130.081 10.5025V14H128.966ZM135.203 14.1156C134.666 14.1156 134.197 13.9925 133.797 13.7464C133.397 13.5004 133.086 13.1561 132.865 12.7136C132.644 12.2711 132.533 11.7541 132.533 11.1625C132.533 10.5684 132.644 10.0488 132.865 9.60387C133.086 9.15891 133.397 8.81339 133.797 8.56729C134.197 8.3212 134.666 8.19815 135.203 8.19815C135.74 8.19815 136.208 8.3212 136.609 8.56729C137.009 8.81339 137.32 9.15891 137.541 9.60387C137.762 10.0488 137.873 10.5684 137.873 11.1625C137.873 11.7541 137.762 12.2711 137.541 12.7136C137.32 13.1561 137.009 13.5004 136.609 13.7464C136.208 13.9925 135.74 14.1156 135.203 14.1156ZM135.207 13.1797C135.555 13.1797 135.843 13.0877 136.072 12.9038C136.3 12.7198 136.469 12.475 136.579 12.1692C136.691 11.8635 136.747 11.5266 136.747 11.1587C136.747 10.7933 136.691 10.4577 136.579 10.152C136.469 9.84375 136.3 9.59641 136.072 9.40998C135.843 9.22354 135.555 9.13033 135.207 9.13033C134.856 9.13033 134.565 9.22354 134.334 9.40998C134.105 9.59641 133.935 9.84375 133.823 10.152C133.714 10.4577 133.659 10.7933 133.659 11.1587C133.659 11.5266 133.714 11.8635 133.823 12.1692C133.935 12.475 134.105 12.7198 134.334 12.9038C134.565 13.0877 134.856 13.1797 135.207 13.1797ZM143.822 8.27273L141.745 14H140.552L138.471 8.27273H139.668L141.119 12.68H141.178L142.625 8.27273H143.822ZM144.87 14V8.27273H145.984V14H144.87ZM145.433 7.38903C145.239 7.38903 145.072 7.3244 144.933 7.19513C144.796 7.06339 144.728 6.90678 144.728 6.72532C144.728 6.54137 144.796 6.38477 144.933 6.2555C145.072 6.12376 145.239 6.05788 145.433 6.05788C145.627 6.05788 145.792 6.12376 145.929 6.2555C146.068 6.38477 146.137 6.54137 146.137 6.72532C146.137 6.90678 146.068 7.06339 145.929 7.19513C145.792 7.3244 145.627 7.38903 145.433 7.38903ZM149.628 14.1119C149.166 14.1119 148.753 13.9938 148.39 13.7576C148.03 13.519 147.747 13.1797 147.54 12.7397C147.336 12.2972 147.235 11.7665 147.235 11.1475C147.235 10.5286 147.338 9.99911 147.544 9.55913C147.753 9.11914 148.039 8.78232 148.402 8.54865C148.765 8.31499 149.176 8.19815 149.636 8.19815C149.991 8.19815 150.277 8.25781 150.493 8.37713C150.712 8.49396 150.881 8.63068 151 8.78729C151.122 8.94389 151.217 9.08185 151.284 9.20117H151.351V6.36364H152.466V14H151.377V13.1088H151.284C151.217 13.2306 151.12 13.3699 150.993 13.5265C150.869 13.6831 150.697 13.8198 150.478 13.9366C150.26 14.0534 149.976 14.1119 149.628 14.1119ZM149.874 13.161C150.195 13.161 150.466 13.0765 150.687 12.9075C150.911 12.736 151.08 12.4986 151.194 12.1953C151.311 11.892 151.37 11.5391 151.37 11.1364C151.37 10.7386 151.312 10.3906 151.198 10.0923C151.084 9.79403 150.916 9.56161 150.695 9.39506C150.473 9.22852 150.2 9.14524 149.874 9.14524C149.539 9.14524 149.259 9.23224 149.035 9.40625C148.812 9.58026 148.643 9.81765 148.528 10.1184C148.417 10.4192 148.361 10.7585 148.361 11.1364C148.361 11.5192 148.418 11.8635 148.532 12.1692C148.646 12.475 148.815 12.7173 149.039 12.8963C149.265 13.0728 149.544 13.161 149.874 13.161ZM156.525 14.1156C155.961 14.1156 155.475 13.995 155.068 13.7539C154.662 13.5103 154.349 13.1685 154.128 12.7285C153.909 12.286 153.8 11.7678 153.8 11.1737C153.8 10.587 153.909 10.07 154.128 9.62251C154.349 9.17507 154.657 8.82582 155.053 8.57475C155.45 8.32369 155.915 8.19815 156.447 8.19815C156.77 8.19815 157.084 8.2516 157.387 8.35849C157.69 8.46538 157.962 8.63317 158.203 8.86186C158.445 9.09055 158.635 9.38761 158.774 9.75302C158.913 10.1159 158.983 10.5572 158.983 11.0767V11.4719H154.43V10.6367H157.89C157.89 10.3434 157.831 10.0836 157.711 9.85742C157.592 9.62873 157.424 9.44851 157.208 9.31676C156.994 9.18501 156.743 9.11914 156.455 9.11914C156.141 9.11914 155.868 9.1962 155.634 9.35032C155.403 9.50195 155.224 9.70082 155.097 9.94691C154.973 10.1905 154.911 10.4553 154.911 10.7411V11.3936C154.911 11.7765 154.978 12.1021 155.112 12.3706C155.249 12.639 155.439 12.8441 155.683 12.9858C155.926 13.125 156.211 13.1946 156.537 13.1946C156.748 13.1946 156.941 13.1648 157.115 13.1051C157.289 13.043 157.439 12.951 157.566 12.8292C157.693 12.7074 157.79 12.557 157.857 12.378L158.912 12.5682C158.827 12.8789 158.676 13.1511 158.457 13.3848C158.241 13.6159 157.968 13.7962 157.64 13.9254C157.315 14.0522 156.943 14.1156 156.525 14.1156ZM160.22 14V8.27273H161.297V9.18253H161.357C161.461 8.87429 161.645 8.63192 161.909 8.45543C162.175 8.27646 162.476 8.18697 162.811 8.18697C162.881 8.18697 162.963 8.18945 163.057 8.19442C163.154 8.1994 163.23 8.20561 163.285 8.21307V9.27947C163.24 9.26705 163.16 9.25337 163.046 9.23846C162.932 9.22106 162.817 9.21236 162.703 9.21236C162.439 9.21236 162.205 9.26829 161.998 9.38015C161.794 9.48952 161.633 9.6424 161.514 9.83878C161.394 10.0327 161.335 10.2539 161.335 10.5025V14H160.22Z" fill="#0B0B0B"/>
<defs>
<linearGradient id="paint0_linear_1_4320" x1="12.0005" y1="17.4976" x2="16.0073" y2="13.0037" gradientUnits="userSpaceOnUse">
<stop stop-color="#FF414C"/>
<stop offset="1" stop-color="#FF414C" stop-opacity="0"/>
</linearGradient>
</defs>
</svg>
