<?xml version="1.0" encoding="UTF-8" standalone="no"?>
<svg
   width="260.73099"
   height="31.0942"
   viewBox="0 0 260.73099 31.0942"
   fill="none"
   version="1.1"
   id="svg98"
   sodipodi:docname="powered-by-akash-dark.svg"
   inkscape:version="1.2.2 (732a01da63, 2022-12-09)"
   xmlns:inkscape="http://www.inkscape.org/namespaces/inkscape"
   xmlns:sodipodi="http://sodipodi.sourceforge.net/DTD/sodipodi-0.dtd"
   xmlns="http://www.w3.org/2000/svg"
   xmlns:svg="http://www.w3.org/2000/svg">
  <sodipodi:namedview
     id="namedview100"
     pagecolor="#505050"
     bordercolor="#eeeeee"
     borderopacity="1"
     inkscape:showpageshadow="0"
     inkscape:pageopacity="0"
     inkscape:pagecheckerboard="0"
     inkscape:deskcolor="#505050"
     showgrid="false"
     inkscape:zoom="4.0333333"
     inkscape:cx="80.082645"
     inkscape:cy="15.619835"
     inkscape:window-width="2560"
     inkscape:window-height="1369"
     inkscape:window-x="2552"
     inkscape:window-y="-8"
     inkscape:window-maximized="1"
     inkscape:current-layer="svg98" />
  <path
     d="m 0,20.3381 h 1.4878 v -5.0877 h 3.1224 c 2.2592,0 3.9306,-1.598 3.9306,-3.9123 C 8.5408,9.0055 6.9429,7.481 4.6102,7.481 H 0 Z M 1.4878,13.9279 V 8.8034 h 2.9938 c 1.5429,0 2.5347,1.0653 2.5347,2.5347 0,1.4878 -0.9918,2.5898 -2.5347,2.5898 z"
     fill="#ffffff"
     id="path57" />
  <path
     d="m 14.8213,20.5769 c 2.8653,0 4.9959,-2.149 4.9959,-5.0143 0,-2.8653 -2.0939,-5.0143 -4.9775,-5.0143 -2.847,0 -4.996,2.1306 -4.996,5.0143 0,2.902 2.1123,5.0143 4.9776,5.0143 z m 0,-1.3225 c -2.0388,0 -3.4898,-1.5428 -3.4898,-3.6918 0,-2.0939 1.4327,-3.6918 3.4898,-3.6918 2.0571,0 3.5082,1.5796 3.5082,3.6918 0,2.1306 -1.4511,3.6918 -3.5082,3.6918 z"
     fill="#ffffff"
     id="path59" />
  <path
     d="m 23.9853,20.3381 h 1.8735 l 2.4612,-7.751 h 0.1102 l 2.4429,7.751 h 1.8734 l 2.9939,-9.551 H 34.1608 L 31.8282,18.685 H 31.718 l -2.5164,-7.8979 h -1.653 l -2.5347,7.8979 h -0.1102 l -2.3143,-7.8979 h -1.5796 z"
     fill="#ffffff"
     id="path61" />
  <path
     d="m 41.6322,20.5769 c 2.2408,0 3.9122,-1.2674 4.4449,-3.049 H 44.571 c -0.4409,1.1204 -1.6531,1.7265 -2.9205,1.7265 -1.9653,0 -3.1959,-1.2673 -3.2693,-3.1775 h 7.7877 V 15.434 c 0,-2.7551 -1.7265,-4.8857 -4.6286,-4.8857 -2.6081,0 -4.6836,1.9653 -4.6836,5.0143 0,2.8653 1.8551,5.0143 4.7755,5.0143 z m -3.2143,-5.7857 c 0.1469,-1.7633 1.5245,-2.9204 3.1224,-2.9204 1.6164,0 2.9572,1.0102 3.0858,2.9204 z"
     fill="#ffffff"
     id="path63" />
  <path
     d="m 48.7481,20.3381 h 1.451 v -4.9224 c 0,-1.8184 0.9735,-3.1776 2.7184,-3.1776 h 0.7898 v -1.451 h -0.8082 c -1.3959,0 -2.3326,0.9735 -2.6082,1.7816 h -0.1102 v -1.7816 h -1.4326 z"
     fill="#ffffff"
     id="path65" />
  <path
     d="m 59.7843,20.5769 c 2.2408,0 3.9122,-1.2674 4.4449,-3.049 h -1.5061 c -0.4409,1.1204 -1.6531,1.7265 -2.9205,1.7265 -1.9653,0 -3.1959,-1.2673 -3.2693,-3.1775 H 64.321 V 15.434 c 0,-2.7551 -1.7265,-4.8857 -4.6286,-4.8857 -2.6081,0 -4.6836,1.9653 -4.6836,5.0143 0,2.8653 1.8551,5.0143 4.7755,5.0143 z M 56.57,14.7912 c 0.1469,-1.7633 1.5245,-2.9204 3.1224,-2.9204 1.6164,0 2.9572,1.0102 3.0858,2.9204 z"
     fill="#ffffff"
     id="path67" />
  <path
     d="m 70.9226,20.5769 c 2.0755,0 3.0674,-1.3959 3.3062,-1.7449 h 0.1102 v 1.5061 h 1.3959 V 6.5626 h -1.451 v 5.7673 h -0.1102 c -0.2939,-0.4959 -1.3592,-1.7816 -3.3613,-1.7816 -2.7,0 -4.6469,2.0939 -4.6469,5.0327 0,2.9204 1.9469,4.9959 4.7571,4.9959 z m 0.0919,-1.3041 c -2.0021,0 -3.3612,-1.451 -3.3612,-3.6918 0,-2.1674 1.3591,-3.7102 3.3244,-3.7102 1.8919,0 3.3613,1.3591 3.3613,3.7102 0,2.002 -1.249,3.6918 -3.3245,3.6918 z"
     fill="#ffffff"
     id="path69" />
  <path
     d="m 88.824,20.5769 c 2.81,0 4.757,-2.0755 4.757,-4.9959 0,-2.9388 -1.947,-5.0327 -4.647,-5.0327 -2.002,0 -3.067,1.2857 -3.361,1.7816 h -0.11 V 6.5626 h -1.451 v 13.7755 h 1.396 V 18.832 h 0.11 c 0.239,0.349 1.231,1.7449 3.306,1.7449 z m -0.092,-1.3041 c -2.075,0 -3.324,-1.6898 -3.324,-3.6918 0,-2.3511 1.469,-3.7102 3.361,-3.7102 1.965,0 3.325,1.5428 3.325,3.7102 0,2.2408 -1.36,3.6918 -3.362,3.6918 z"
     fill="#ffffff"
     id="path71" />
  <path
     d="m 95.721,24.5626 h 0.992 c 1.561,0 2.314,-0.7347 2.81,-2.0388 l 4.555,-11.7367 h -1.635 l -2.975,8.0816 h -0.11 L 96.4,10.7871 h -1.616 l 3.876,10.0653 -0.441,1.1571 c -0.312,0.8266 -0.845,1.2307 -1.782,1.2307 h -0.716 z"
     fill="#ffffff"
     id="path73" />
  <g
     clip-path="url(#clip0)"
     id="g91"
     transform="translate(-19,-36.4374)">
    <path
       d="m 209.901,50.3427 4.125,-6.1073 h 6.722 l -5.967,8.8233 6.155,9.2324 h -6.718 l -4.317,-6.5066 v 6.5066 h -5.577 V 36.4374 h 5.577 z"
       fill="#ffffff"
       id="path75" />
    <path
       d="m 279.731,49.8498 v 12.4364 h -5.572 V 49.9829 c 0,-1.2521 -1.027,-2.2773 -2.282,-2.2773 -1.264,0 -2.287,1.0252 -2.287,2.2773 v 12.3033 h -5.572 V 36.4374 h 5.572 v 8.3698 c 1.067,-0.7936 2.386,-1.2668 3.814,-1.2668 3.497,-0.005 6.327,2.8195 6.327,6.3094 z"
       fill="#ffffff"
       id="path77" />
    <path
       d="m 195.645,44.236 v 0.8922 c -1.512,-0.976 -3.315,-1.5478 -5.251,-1.5478 -5.354,0 -9.696,4.3328 -9.696,9.6761 0,5.3433 4.342,9.676 9.701,9.676 1.936,0 3.734,-0.5718 5.251,-1.5477 v 0.9414 h 5.572 V 44.236 Z m -4.436,13.7328 c -2.726,0 -4.939,-2.2083 -4.939,-4.9292 0,-2.7209 2.213,-4.9292 4.939,-4.9292 2.727,0 4.94,2.2083 4.94,4.9292 0,2.7209 -2.208,4.9292 -4.94,4.9292 z"
       fill="#ffffff"
       id="path79" />
    <path
       d="m 235.883,44.236 v 0.8922 c -1.512,-0.976 -3.314,-1.5478 -5.251,-1.5478 -5.354,0 -9.696,4.3328 -9.696,9.6761 0,5.3433 4.342,9.676 9.696,9.676 1.937,0 3.735,-0.5718 5.251,-1.5477 v 0.9414 h 5.572 V 44.236 Z m -4.436,13.7328 c -2.726,0 -4.939,-2.2083 -4.939,-4.9292 0,-2.7209 2.213,-4.9292 4.939,-4.9292 2.727,0 4.94,2.2083 4.94,4.9292 0,2.7209 -2.213,4.9292 -4.94,4.9292 z"
       fill="#ffffff"
       id="path81" />
    <path
       d="m 249.585,56.4459 c 0.025,0.3697 0.123,0.6851 0.291,0.9365 0.178,0.2662 0.41,0.4831 0.687,0.6507 0.301,0.1774 0.652,0.3105 1.052,0.3943 0.42,0.0887 0.855,0.1331 1.304,0.1331 1.003,0 1.759,-0.1528 2.248,-0.4486 0.41,-0.2514 0.592,-0.5225 0.592,-0.8774 0,-0.1626 -0.034,-0.2957 -0.103,-0.4091 -0.04,-0.0641 -0.149,-0.1972 -0.45,-0.3648 -0.281,-0.1577 -0.667,-0.3056 -1.151,-0.4436 -0.509,-0.1429 -1.171,-0.2957 -1.971,-0.4436 -1.057,-0.212 -2.04,-0.4781 -2.924,-0.7985 -0.904,-0.3254 -1.689,-0.7296 -2.341,-1.1978 -0.672,-0.488 -1.211,-1.0598 -1.591,-1.7006 -0.395,-0.6655 -0.598,-1.4344 -0.598,-2.2921 0,-0.8183 0.198,-1.6168 0.588,-2.3611 0.39,-0.7394 0.949,-1.39 1.665,-1.9372 0.701,-0.5373 1.566,-0.971 2.564,-1.2816 0.987,-0.3105 2.114,-0.4682 3.344,-0.4682 1.279,0 2.45,0.1528 3.477,0.4534 1.042,0.3057 1.941,0.7394 2.677,1.2816 0.751,0.557 1.334,1.2323 1.734,2.0013 0.4,0.7739 0.603,1.6266 0.603,2.5336 h -5.73 c 0,-0.5077 -0.198,-0.907 -0.618,-1.2619 -0.444,-0.3697 -1.165,-0.552 -2.148,-0.552 -0.924,0 -1.611,0.1528 -2.045,0.4584 -0.381,0.2662 -0.554,0.557 -0.554,0.9119 0,0.1676 0.035,0.3204 0.104,0.4633 0.059,0.1233 0.183,0.2465 0.366,0.3648 0.227,0.1479 0.558,0.2908 0.983,0.419 0.449,0.138 1.037,0.2612 1.738,0.3598 1.092,0.1775 2.119,0.4091 3.053,0.6852 0.963,0.2859 1.813,0.6654 2.519,1.1189 0.736,0.4781 1.324,1.0647 1.744,1.7499 0.43,0.7048 0.652,1.5477 0.652,2.4991 0,0.8823 -0.217,1.7055 -0.642,2.4498 -0.42,0.7345 -1.018,1.3703 -1.778,1.8977 -0.741,0.5127 -1.645,0.9169 -2.688,1.1978 -1.027,0.2761 -2.178,0.419 -3.433,0.419 -1.388,0 -2.632,-0.1873 -3.709,-0.552 -1.077,-0.3697 -2.001,-0.8577 -2.737,-1.4591 -0.751,-0.6112 -1.324,-1.3161 -1.714,-2.0998 -0.39,-0.7887 -0.593,-1.5971 -0.593,-2.4055 z"
       fill="#ffffff"
       id="path83" />
    <path
       d="M 168.719,67.5309 174.706,57.1697 162.722,36.4424 H 150.739 Z"
       fill="#ffffff"
       id="path85" />
    <path
       d="m 162.727,57.1704 5.987,10.3612 h -11.979 l -5.996,-10.3612 z"
       fill="#ffffff"
       id="path87" />
    <path
       d="M 144.747,46.804 H 156.73 L 144.752,67.5313 138.755,57.1701 Z"
       fill="#ffffff"
       id="path89" />
  </g>
  <defs
     id="defs96">
    <clipPath
       id="clip0">
      <rect
         width="141.474"
         height="32"
         fill="#ffffff"
         transform="translate(138.588,36)"
         id="rect93"
         x="0"
         y="0" />
    </clipPath>
  </defs>
</svg>
